<svg width="736" height="551" viewBox="0 0 736 551" fill="none" xmlns="http://www.w3.org/2000/svg">
<path d="M513 96L438 206L447 216.5L519.5 106.5L667.5 44.5L663 33L513 96Z" fill="#1C1C1C" stroke="#1C1C1C"/>
<path d="M582.438 203.899L451.471 227.828L450.324 241.61L579.534 215.902L727.643 277.641L732.664 266.359L582.438 203.899Z" fill="#1C1C1C" stroke="#1C1C1C"/>
<path d="M574.726 287.32L444.751 258.485L438.339 270.738L567.387 297.252L679.872 411.685L688.882 403.24L574.726 287.32Z" fill="#1C1C1C" stroke="#1C1C1C"/>
<path d="M551.609 363.363L443.665 285.433L432.927 294.148L540.938 369.578L598.938 519.191L610.555 515.002L551.609 363.363Z" fill="#1C1C1C" stroke="#1C1C1C"/>
<path d="M222.826 96L297.826 206L288.826 216.5L216.326 106.5L68.3257 44.5L72.8257 33L222.826 96Z" fill="#1C1C1C" stroke="#1C1C1C"/>
<path d="M153.388 203.899L284.355 227.828L285.502 241.61L156.291 215.902L8.1824 277.641L3.16193 266.359L153.388 203.899Z" fill="#1C1C1C" stroke="#1C1C1C"/>
<path d="M161.1 287.32L291.075 258.485L297.487 270.738L168.439 297.252L55.9536 411.685L46.944 403.24L161.1 287.32Z" fill="#1C1C1C" stroke="#1C1C1C"/>
<path d="M184.217 363.363L292.161 285.433L302.899 294.148L194.887 369.578L136.888 519.191L125.271 515.002L184.217 363.363Z" fill="#1C1C1C" stroke="#1C1C1C"/>
<circle cx="368.083" cy="251.082" r="109" transform="rotate(-180 368.083 251.082)" fill="#1C411B"/>
<circle cx="407.583" cy="287.582" r="24.5" transform="rotate(-180 407.583 287.582)" fill="#D9D9D9"/>
<circle cx="407.583" cy="287.582" r="24.5" transform="rotate(-180 407.583 287.582)" fill="#D9D9D9"/>
<circle cx="324.583" cy="287.582" r="24.5" transform="rotate(-180 324.583 287.582)" fill="#D9D9D9"/>
<circle cx="408.083" cy="299.082" r="9" transform="rotate(-180 408.083 299.082)" fill="#1C1C1C"/>
<circle cx="325.083" cy="299.082" r="9" transform="rotate(-180 325.083 299.082)" fill="#1C1C1C"/>
<ellipse cx="368.001" cy="342" rx="30" ry="13" fill="#270D0D"/>
<mask id="mask0_152_8" style="mask-type:alpha" maskUnits="userSpaceOnUse" x="338" y="329" width="61" height="26">
<ellipse cx="368.001" cy="342" rx="30" ry="13" fill="#150707"/>
</mask>
<g mask="url(#mask0_152_8)">
<path d="M362.001 340L356.805 328.75H367.197L362.001 340Z" fill="#D9D9D9"/>
<path d="M374.001 340L368.805 328.75H379.197L374.001 340Z" fill="#D9D9D9"/>
<path d="M380.001 344L374.805 355.25H385.197L380.001 344Z" fill="#D9D9D9"/>
<path d="M355.001 344L349.805 355.25H360.197L355.001 344Z" fill="#D9D9D9"/>
</g>
<rect x="362.464" y="263.051" width="13.0661" height="63.366" transform="rotate(106.551 362.464 263.051)" fill="#1C1C1C"/>
<rect width="13.0661" height="63.366" transform="matrix(0.284876 0.958564 0.958564 -0.284876 371.001 263.051)" fill="#1C1C1C"/>
</svg>
