<svg width="8832" height="551" viewBox="0 0 8832 551" fill="none" xmlns="http://www.w3.org/2000/svg">
<path d="M513 96L438 206L447 216.5L519.5 106.5L667.5 44.5L663 33L513 96Z" fill="#1C1C1C" stroke="#1C1C1C"/>
<path d="M582.438 203.899L451.471 227.828L450.324 241.61L579.534 215.902L727.643 277.641L732.664 266.359L582.438 203.899Z" fill="#1C1C1C" stroke="#1C1C1C"/>
<path d="M574.726 287.32L444.751 258.485L438.339 270.738L567.387 297.252L679.872 411.685L688.882 403.24L574.726 287.32Z" fill="#1C1C1C" stroke="#1C1C1C"/>
<path d="M551.609 363.363L443.665 285.433L432.927 294.148L540.938 369.578L598.938 519.191L610.555 515.002L551.609 363.363Z" fill="#1C1C1C" stroke="#1C1C1C"/>
<path d="M222.826 96L297.826 206L288.826 216.5L216.326 106.5L68.3257 44.5L72.8257 33L222.826 96Z" fill="#1C1C1C" stroke="#1C1C1C"/>
<path d="M153.388 203.899L284.355 227.828L285.502 241.61L156.291 215.902L8.1824 277.641L3.16193 266.359L153.388 203.899Z" fill="#1C1C1C" stroke="#1C1C1C"/>
<path d="M161.1 287.32L291.075 258.485L297.487 270.738L168.439 297.252L55.9536 411.685L46.944 403.24L161.1 287.32Z" fill="#1C1C1C" stroke="#1C1C1C"/>
<path d="M184.217 363.363L292.161 285.433L302.899 294.148L194.887 369.578L136.888 519.191L125.271 515.002L184.217 363.363Z" fill="#1C1C1C" stroke="#1C1C1C"/>
<circle cx="368.083" cy="251.082" r="109" transform="rotate(-180 368.083 251.082)" fill="#1C411B"/>
<circle cx="407.583" cy="287.582" r="24.5" transform="rotate(-180 407.583 287.582)" fill="#D9D9D9"/>
<circle cx="407.583" cy="287.582" r="24.5" transform="rotate(-180 407.583 287.582)" fill="#D9D9D9"/>
<circle cx="324.583" cy="287.582" r="24.5" transform="rotate(-180 324.583 287.582)" fill="#D9D9D9"/>
<circle cx="408.083" cy="299.082" r="9" transform="rotate(-180 408.083 299.082)" fill="#1C1C1C"/>
<circle cx="325.083" cy="299.082" r="9" transform="rotate(-180 325.083 299.082)" fill="#1C1C1C"/>
<ellipse cx="368.001" cy="342" rx="30" ry="13" fill="#270D0D"/>
<mask id="mask0_152_54" style="mask-type:alpha" maskUnits="userSpaceOnUse" x="338" y="329" width="61" height="26">
<ellipse cx="368.001" cy="342" rx="30" ry="13" fill="#150707"/>
</mask>
<g mask="url(#mask0_152_54)">
<path d="M362.001 340L356.805 328.75H367.197L362.001 340Z" fill="#D9D9D9"/>
<path d="M374.001 340L368.805 328.75H379.197L374.001 340Z" fill="#D9D9D9"/>
<path d="M380.001 344L374.805 355.25H385.197L380.001 344Z" fill="#D9D9D9"/>
<path d="M355.001 344L349.805 355.25H360.197L355.001 344Z" fill="#D9D9D9"/>
</g>
<rect x="362.464" y="263.051" width="13.0661" height="63.366" transform="rotate(106.551 362.464 263.051)" fill="#1C1C1C"/>
<rect width="13.0661" height="63.366" transform="matrix(0.284876 0.958564 0.958564 -0.284876 371.001 263.051)" fill="#1C1C1C"/>
<g clip-path="url(#clip0_152_54)">
<path d="M1285.6 92.7306L1171.24 160.903L1174.98 174.217L1287.07 104.992L1435.55 152.326L1436.32 140L1285.6 92.7306Z" fill="#1C1C1C" stroke="#1C1C1C"/>
<path d="M1300.74 194.145L1167.65 190.423L1163.68 203.668L1295.41 205.286L1427.51 296.37L1434.76 286.372L1300.74 194.145Z" fill="#1C1C1C" stroke="#1C1C1C"/>
<path d="M1301.57 270.877L1172.7 237.458L1165.86 249.477L1293.89 280.542L1402.25 398.886L1411.55 390.765L1301.57 270.877Z" fill="#1C1C1C" stroke="#1C1C1C"/>
<path d="M1006.82 432.5L1068.64 308.5L1059.64 298L996.316 422.5L971.816 541.5L982.316 551L1006.82 432.5Z" fill="#1C1C1C" stroke="#1C1C1C"/>
<path d="M1282.82 346.5L1170.82 314.5L1179.82 304L1297.32 335.5L1268.32 489.5H1254.99L1282.82 346.5Z" fill="#1C1C1C" stroke="#1C1C1C"/>
<path d="M887.204 236.632L1018.17 260.561L1019.32 274.343L890.107 248.635L780.316 369.5L775.295 358.217L887.204 236.632Z" fill="#1C1C1C" stroke="#1C1C1C"/>
<path d="M933.431 162.561L1052.53 222.07L1049.78 235.624L932.871 174.897L775.094 238.735L773.42 226.5L933.431 162.561Z" fill="#1C1C1C" stroke="#1C1C1C"/>
<path d="M994.19 69.2557L1078.43 172.351L1070.37 183.59L988.623 80.279L835.811 31.3231L839.299 19.4767L994.19 69.2557Z" fill="#1C1C1C" stroke="#1C1C1C"/>
<circle cx="1113.9" cy="231.082" r="109" transform="rotate(-180 1113.9 231.082)" fill="#1C411B"/>
<circle cx="1153.4" cy="267.582" r="24.5" transform="rotate(-180 1153.4 267.582)" fill="#D9D9D9"/>
<circle cx="1153.4" cy="267.582" r="24.5" transform="rotate(-180 1153.4 267.582)" fill="#D9D9D9"/>
<circle cx="1070.4" cy="267.582" r="24.5" transform="rotate(-180 1070.4 267.582)" fill="#D9D9D9"/>
<circle cx="1153.9" cy="279.082" r="9" transform="rotate(-180 1153.9 279.082)" fill="#1C1C1C"/>
<circle cx="1070.9" cy="279.082" r="9" transform="rotate(-180 1070.9 279.082)" fill="#1C1C1C"/>
<ellipse cx="1113.82" cy="322" rx="30" ry="13" fill="#270D0D"/>
<mask id="mask1_152_54" style="mask-type:alpha" maskUnits="userSpaceOnUse" x="1083" y="308" width="61" height="27">
<ellipse cx="1113.82" cy="322" rx="30" ry="13" fill="#150707"/>
</mask>
<g mask="url(#mask1_152_54)">
<path d="M1107.82 320L1102.62 308.75H1113.01L1107.82 320Z" fill="#D9D9D9"/>
<path d="M1119.82 320L1114.62 308.75H1125.01L1119.82 320Z" fill="#D9D9D9"/>
<path d="M1125.82 324L1120.62 335.25H1131.01L1125.82 324Z" fill="#D9D9D9"/>
<path d="M1100.82 324L1095.62 335.25H1106.01L1100.82 324Z" fill="#D9D9D9"/>
</g>
<rect x="1108.28" y="243.051" width="13.0661" height="63.366" transform="rotate(106.551 1108.28 243.051)" fill="#1C1C1C"/>
<rect width="13.0661" height="63.366" transform="matrix(0.284876 0.958564 0.958564 -0.284876 1116.82 243.051)" fill="#1C1C1C"/>
</g>
<path d="M2014.6 109.731L1900.24 177.903L1903.98 191.217L2016.07 121.992L2176.41 128.103L2177.18 115.778L2014.6 109.731Z" fill="#1C1C1C" stroke="#1C1C1C"/>
<path d="M2029.74 211.145L1896.65 207.423L1892.68 220.668L2024.41 222.286L2173.25 292.498L2180.5 282.5L2029.74 211.145Z" fill="#1C1C1C" stroke="#1C1C1C"/>
<path d="M2031.5 279L1901.7 254.459L1894.86 266.477L2024 293L2096.7 412.621L2106 404.5L2031.5 279Z" fill="#1C1C1C" stroke="#1C1C1C"/>
<path d="M1720 430.5L1797.64 325.501L1788.64 315.001L1704.5 425L1735.5 531.5H1749L1720 430.5Z" fill="#1C1C1C" stroke="#1C1C1C"/>
<path d="M2011.82 363.5L1899.82 331.5L1908.82 321L2026.32 352.5L2075 488.5L2062.17 497.5L2011.82 363.5Z" fill="#1C1C1C" stroke="#1C1C1C"/>
<path d="M1616.2 253.632L1747.17 277.561L1748.32 291.343L1619.11 265.635L1509.32 386.5L1504.3 375.217L1616.2 253.632Z" fill="#1C1C1C" stroke="#1C1C1C"/>
<path d="M1662.43 179.561L1781.53 239.07L1778.78 252.624L1661.87 191.897L1527.67 295.235L1526 283L1662.43 179.561Z" fill="#1C1C1C" stroke="#1C1C1C"/>
<path d="M1723.19 86.2558L1807.43 189.351L1799.37 200.59L1717.62 97.2791L1550.01 78.8465L1553.5 67.0001L1723.19 86.2558Z" fill="#1C1C1C" stroke="#1C1C1C"/>
<circle cx="1842.9" cy="248.082" r="109" transform="rotate(-180 1842.9 248.082)" fill="#1C411B"/>
<circle cx="1882.4" cy="284.582" r="24.5" transform="rotate(-180 1882.4 284.582)" fill="#D9D9D9"/>
<circle cx="1882.4" cy="284.582" r="24.5" transform="rotate(-180 1882.4 284.582)" fill="#D9D9D9"/>
<circle cx="1799.4" cy="284.582" r="24.5" transform="rotate(-180 1799.4 284.582)" fill="#D9D9D9"/>
<circle cx="1882.9" cy="296.082" r="9" transform="rotate(-180 1882.9 296.082)" fill="#1C1C1C"/>
<circle cx="1799.9" cy="296.082" r="9" transform="rotate(-180 1799.9 296.082)" fill="#1C1C1C"/>
<ellipse cx="1842.82" cy="339" rx="30" ry="13" fill="#270D0D"/>
<mask id="mask2_152_54" style="mask-type:alpha" maskUnits="userSpaceOnUse" x="1812" y="325" width="61" height="27">
<ellipse cx="1842.82" cy="339" rx="30" ry="13" fill="#150707"/>
</mask>
<g mask="url(#mask2_152_54)">
<path d="M1836.82 337L1831.62 325.75H1842.01L1836.82 337Z" fill="#D9D9D9"/>
<path d="M1848.82 337L1843.62 325.75H1854.01L1848.82 337Z" fill="#D9D9D9"/>
<path d="M1854.82 341L1849.62 352.25H1860.01L1854.82 341Z" fill="#D9D9D9"/>
<path d="M1829.82 341L1824.62 352.25H1835.01L1829.82 341Z" fill="#D9D9D9"/>
</g>
<rect x="1837.28" y="260.051" width="13.0661" height="63.366" transform="rotate(106.551 1837.28 260.051)" fill="#1C1C1C"/>
<rect width="13.0661" height="63.366" transform="matrix(0.284876 0.958564 0.958564 -0.284876 1845.82 260.051)" fill="#1C1C1C"/>
<path d="M2761.93 130.133L2655.17 207.535L2658.91 220.849L2767.93 142.633L2904.67 104.458L2905.43 92.1328L2761.93 130.133Z" fill="#1C1C1C" stroke="#1C1C1C"/>
<path d="M2784.67 240.778L2651.58 237.055L2647.61 250.3L2779.34 251.919L2895.93 351.133L2903.18 341.136L2784.67 240.778Z" fill="#1C1C1C" stroke="#1C1C1C"/>
<path d="M2786.43 308.633L2656.63 284.091L2649.79 296.11L2778.93 322.633L2881.13 420.754L2890.43 412.633L2786.43 308.633Z" fill="#1C1C1C" stroke="#1C1C1C"/>
<path d="M2399.43 423.133L2552.57 355.133L2543.57 344.633L2373.93 416.633L2469.81 528.633H2488.81L2399.43 423.133Z" fill="#1C1C1C" stroke="#1C1C1C"/>
<path d="M2766.75 393.133L2654.75 361.133L2663.75 350.633L2781.25 382.133L2794.07 526.133L2781.25 535.133L2766.75 393.133Z" fill="#1C1C1C" stroke="#1C1C1C"/>
<path d="M2389.43 333.633L2502.1 307.194L2503.25 320.976L2398.43 343.133L2328.95 445.915L2323.93 434.633L2389.43 333.633Z" fill="#1C1C1C" stroke="#1C1C1C"/>
<path d="M2419.93 181.133L2536.46 268.703L2533.71 282.257L2419.93 196.133L2248.6 244.368L2246.93 232.133L2419.93 181.133Z" fill="#1C1C1C" stroke="#1C1C1C"/>
<path d="M2478.12 115.888L2562.36 218.983L2554.3 230.223L2472.55 126.912L2313.93 149.133L2317.42 137.286L2478.12 115.888Z" fill="#1C1C1C" stroke="#1C1C1C"/>
<circle cx="2597.83" cy="277.715" r="109" transform="rotate(-180 2597.83 277.715)" fill="#1C411B"/>
<circle cx="2637.33" cy="314.215" r="24.5" transform="rotate(-180 2637.33 314.215)" fill="#D9D9D9"/>
<circle cx="2637.33" cy="314.215" r="24.5" transform="rotate(-180 2637.33 314.215)" fill="#D9D9D9"/>
<circle cx="2554.33" cy="314.215" r="24.5" transform="rotate(-180 2554.33 314.215)" fill="#D9D9D9"/>
<circle cx="2637.83" cy="325.715" r="9" transform="rotate(-180 2637.83 325.715)" fill="#1C1C1C"/>
<circle cx="2554.83" cy="325.715" r="9" transform="rotate(-180 2554.83 325.715)" fill="#1C1C1C"/>
<ellipse cx="2597.75" cy="368.633" rx="30" ry="13" fill="#270D0D"/>
<mask id="mask3_152_54" style="mask-type:alpha" maskUnits="userSpaceOnUse" x="2567" y="355" width="61" height="27">
<ellipse cx="2597.75" cy="368.633" rx="30" ry="13" fill="#150707"/>
</mask>
<g mask="url(#mask3_152_54)">
<path d="M2591.75 366.633L2586.55 355.383H2596.94L2591.75 366.633Z" fill="#D9D9D9"/>
<path d="M2603.75 366.633L2598.55 355.383H2608.94L2603.75 366.633Z" fill="#D9D9D9"/>
<path d="M2609.75 370.633L2604.55 381.883H2614.94L2609.75 370.633Z" fill="#D9D9D9"/>
<path d="M2584.75 370.633L2579.55 381.883H2589.94L2584.75 370.633Z" fill="#D9D9D9"/>
</g>
<rect x="2592.21" y="289.684" width="13.0661" height="63.366" transform="rotate(106.551 2592.21 289.684)" fill="#1C1C1C"/>
<rect width="13.0661" height="63.366" transform="matrix(0.284876 0.958564 0.958564 -0.284876 2600.75 289.684)" fill="#1C1C1C"/>
<path d="M3126.58 130.133L3233.34 207.535L3229.6 220.849L3120.58 142.633L2983.84 104.458L2983.08 92.1328L3126.58 130.133Z" fill="#1C1C1C" stroke="#1C1C1C"/>
<path d="M3103.85 240.778L3236.93 237.055L3240.91 250.3L3109.17 251.919L2992.58 351.133L2985.33 341.136L3103.85 240.778Z" fill="#1C1C1C" stroke="#1C1C1C"/>
<path d="M3102.08 308.633L3231.88 284.091L3238.72 296.11L3109.58 322.633L3007.38 420.754L2998.08 412.633L3102.08 308.633Z" fill="#1C1C1C" stroke="#1C1C1C"/>
<path d="M3489.08 423.133L3335.94 355.133L3344.94 344.633L3514.58 416.633L3418.7 528.633H3399.7L3489.08 423.133Z" fill="#1C1C1C" stroke="#1C1C1C"/>
<path d="M3121.77 393.133L3233.77 361.133L3224.77 350.633L3107.27 382.133L3094.44 526.133L3107.27 535.133L3121.77 393.133Z" fill="#1C1C1C" stroke="#1C1C1C"/>
<path d="M3499.08 333.633L3386.41 307.194L3385.26 320.976L3490.08 343.133L3559.56 445.915L3564.58 434.633L3499.08 333.633Z" fill="#1C1C1C" stroke="#1C1C1C"/>
<path d="M3468.58 181.133L3352.06 268.703L3354.8 282.257L3468.58 196.133L3639.91 244.368L3641.58 232.133L3468.58 181.133Z" fill="#1C1C1C" stroke="#1C1C1C"/>
<path d="M3410.39 115.888L3326.15 218.983L3334.21 230.223L3415.96 126.912L3574.58 149.133L3571.09 137.286L3410.39 115.888Z" fill="#1C1C1C" stroke="#1C1C1C"/>
<circle r="109" transform="matrix(1 -8.74228e-08 -8.74228e-08 -1 3290.68 277.715)" fill="#1C411B"/>
<circle r="24.5" transform="matrix(1 -8.74228e-08 -8.74228e-08 -1 3251.18 314.215)" fill="#D9D9D9"/>
<circle r="24.5" transform="matrix(1 -8.74228e-08 -8.74228e-08 -1 3251.18 314.215)" fill="#D9D9D9"/>
<circle r="24.5" transform="matrix(1 -8.74228e-08 -8.74228e-08 -1 3334.18 314.215)" fill="#D9D9D9"/>
<circle r="9" transform="matrix(1 -8.74228e-08 -8.74228e-08 -1 3250.68 325.715)" fill="#1C1C1C"/>
<circle r="9" transform="matrix(1 -8.74228e-08 -8.74228e-08 -1 3333.68 325.715)" fill="#1C1C1C"/>
<ellipse rx="30" ry="13" transform="matrix(-1 0 0 1 3290.77 368.633)" fill="#270D0D"/>
<mask id="mask4_152_54" style="mask-type:alpha" maskUnits="userSpaceOnUse" x="3260" y="355" width="61" height="27">
<ellipse rx="30" ry="13" transform="matrix(-1 0 0 1 3290.77 368.633)" fill="#150707"/>
</mask>
<g mask="url(#mask4_152_54)">
<path d="M3296.77 366.633L3301.96 355.383H3291.57L3296.77 366.633Z" fill="#D9D9D9"/>
<path d="M3284.77 366.633L3289.96 355.383H3279.57L3284.77 366.633Z" fill="#D9D9D9"/>
<path d="M3278.77 370.633L3283.96 381.883H3273.57L3278.77 370.633Z" fill="#D9D9D9"/>
<path d="M3303.77 370.633L3308.96 381.883H3298.57L3303.77 370.633Z" fill="#D9D9D9"/>
</g>
<rect width="13.0661" height="63.366" transform="matrix(0.284876 0.958564 0.958564 -0.284876 3296.3 289.684)" fill="#1C1C1C"/>
<rect x="3287.77" y="289.684" width="13.0661" height="63.366" transform="rotate(106.551 3287.77 289.684)" fill="#1C1C1C"/>
<path d="M8638.6 109.731L8524.24 177.903L8527.98 191.217L8640.07 121.992L8800.41 128.103L8801.18 115.778L8638.6 109.731Z" fill="#1C1C1C" stroke="#1C1C1C"/>
<path d="M8653.74 211.145L8520.65 207.423L8516.68 220.668L8648.41 222.286L8797.25 292.498L8804.5 282.5L8653.74 211.145Z" fill="#1C1C1C" stroke="#1C1C1C"/>
<path d="M8655.5 279L8525.7 254.459L8518.86 266.477L8648 293L8720.7 412.621L8730 404.5L8655.5 279Z" fill="#1C1C1C" stroke="#1C1C1C"/>
<path d="M8344 430.5L8421.64 325.501L8412.64 315.001L8328.5 425L8359.5 531.5H8373L8344 430.5Z" fill="#1C1C1C" stroke="#1C1C1C"/>
<path d="M8635.82 363.5L8523.82 331.5L8532.82 321L8650.32 352.5L8699 488.5L8686.17 497.5L8635.82 363.5Z" fill="#1C1C1C" stroke="#1C1C1C"/>
<path d="M8240.2 253.632L8371.17 277.561L8372.32 291.343L8243.11 265.635L8133.32 386.5L8128.3 375.217L8240.2 253.632Z" fill="#1C1C1C" stroke="#1C1C1C"/>
<path d="M8286.43 179.561L8405.53 239.07L8402.78 252.624L8285.87 191.897L8151.67 295.235L8150 283L8286.43 179.561Z" fill="#1C1C1C" stroke="#1C1C1C"/>
<path d="M8347.19 86.2558L8431.43 189.351L8423.37 200.59L8341.62 97.2791L8174.01 78.8465L8177.5 67.0001L8347.19 86.2558Z" fill="#1C1C1C" stroke="#1C1C1C"/>
<circle cx="8466.9" cy="248.082" r="109" transform="rotate(-180 8466.9 248.082)" fill="#1C411B"/>
<circle cx="8506.4" cy="284.582" r="24.5" transform="rotate(-180 8506.4 284.582)" fill="#D9D9D9"/>
<circle cx="8506.4" cy="284.582" r="24.5" transform="rotate(-180 8506.4 284.582)" fill="#D9D9D9"/>
<circle cx="8423.4" cy="284.582" r="24.5" transform="rotate(-180 8423.4 284.582)" fill="#D9D9D9"/>
<circle cx="8506.9" cy="296.082" r="9" transform="rotate(-180 8506.9 296.082)" fill="#1C1C1C"/>
<circle cx="8423.9" cy="296.082" r="9" transform="rotate(-180 8423.9 296.082)" fill="#1C1C1C"/>
<ellipse cx="8466.82" cy="339" rx="30" ry="13" fill="#270D0D"/>
<mask id="mask5_152_54" style="mask-type:alpha" maskUnits="userSpaceOnUse" x="8436" y="325" width="61" height="27">
<ellipse cx="8466.82" cy="339" rx="30" ry="13" fill="#150707"/>
</mask>
<g mask="url(#mask5_152_54)">
<path d="M8460.82 337L8455.62 325.75H8466.01L8460.82 337Z" fill="#D9D9D9"/>
<path d="M8472.82 337L8467.62 325.75H8478.01L8472.82 337Z" fill="#D9D9D9"/>
<path d="M8478.82 341L8473.62 352.25H8484.01L8478.82 341Z" fill="#D9D9D9"/>
<path d="M8453.82 341L8448.62 352.25H8459.01L8453.82 341Z" fill="#D9D9D9"/>
</g>
<rect x="8461.28" y="260.051" width="13.0661" height="63.366" transform="rotate(106.551 8461.28 260.051)" fill="#1C1C1C"/>
<rect width="13.0661" height="63.366" transform="matrix(0.284876 0.958564 0.958564 -0.284876 8469.82 260.051)" fill="#1C1C1C"/>
<path d="M7913.93 130.133L7807.17 207.535L7810.91 220.849L7919.93 142.633L8056.67 104.458L8057.43 92.1328L7913.93 130.133Z" fill="#1C1C1C" stroke="#1C1C1C"/>
<path d="M7936.67 240.778L7803.58 237.055L7799.61 250.3L7931.34 251.919L8047.93 351.133L8055.18 341.136L7936.67 240.778Z" fill="#1C1C1C" stroke="#1C1C1C"/>
<path d="M7938.43 308.633L7808.63 284.091L7801.79 296.11L7930.93 322.633L8033.13 420.754L8042.43 412.633L7938.43 308.633Z" fill="#1C1C1C" stroke="#1C1C1C"/>
<path d="M7551.43 423.133L7704.57 355.133L7695.57 344.633L7525.93 416.633L7621.81 528.633H7640.81L7551.43 423.133Z" fill="#1C1C1C" stroke="#1C1C1C"/>
<path d="M7918.75 393.133L7806.75 361.133L7815.75 350.633L7933.25 382.133L7946.07 526.133L7933.25 535.133L7918.75 393.133Z" fill="#1C1C1C" stroke="#1C1C1C"/>
<path d="M7541.43 333.633L7654.1 307.194L7655.25 320.976L7550.43 343.133L7480.95 445.915L7475.93 434.633L7541.43 333.633Z" fill="#1C1C1C" stroke="#1C1C1C"/>
<path d="M7571.93 181.133L7688.46 268.703L7685.71 282.257L7571.93 196.133L7400.6 244.368L7398.93 232.133L7571.93 181.133Z" fill="#1C1C1C" stroke="#1C1C1C"/>
<path d="M7630.12 115.888L7714.36 218.983L7706.3 230.223L7624.55 126.912L7465.93 149.133L7469.42 137.286L7630.12 115.888Z" fill="#1C1C1C" stroke="#1C1C1C"/>
<circle cx="7749.83" cy="277.715" r="109" transform="rotate(-180 7749.83 277.715)" fill="#1C411B"/>
<circle cx="7789.33" cy="314.215" r="24.5" transform="rotate(-180 7789.33 314.215)" fill="#D9D9D9"/>
<circle cx="7789.33" cy="314.215" r="24.5" transform="rotate(-180 7789.33 314.215)" fill="#D9D9D9"/>
<circle cx="7706.33" cy="314.215" r="24.5" transform="rotate(-180 7706.33 314.215)" fill="#D9D9D9"/>
<circle cx="7789.83" cy="325.715" r="9" transform="rotate(-180 7789.83 325.715)" fill="#1C1C1C"/>
<circle cx="7706.83" cy="325.715" r="9" transform="rotate(-180 7706.83 325.715)" fill="#1C1C1C"/>
<ellipse cx="7749.75" cy="368.633" rx="30" ry="13" fill="#270D0D"/>
<mask id="mask6_152_54" style="mask-type:alpha" maskUnits="userSpaceOnUse" x="7719" y="355" width="61" height="27">
<ellipse cx="7749.75" cy="368.633" rx="30" ry="13" fill="#150707"/>
</mask>
<g mask="url(#mask6_152_54)">
<path d="M7743.75 366.633L7738.55 355.383H7748.94L7743.75 366.633Z" fill="#D9D9D9"/>
<path d="M7755.75 366.633L7750.55 355.383H7760.94L7755.75 366.633Z" fill="#D9D9D9"/>
<path d="M7761.75 370.633L7756.55 381.883H7766.94L7761.75 370.633Z" fill="#D9D9D9"/>
<path d="M7736.75 370.633L7731.55 381.883H7741.94L7736.75 370.633Z" fill="#D9D9D9"/>
</g>
<rect x="7744.21" y="289.684" width="13.0661" height="63.366" transform="rotate(106.551 7744.21 289.684)" fill="#1C1C1C"/>
<rect width="13.0661" height="63.366" transform="matrix(0.284876 0.958564 0.958564 -0.284876 7752.75 289.684)" fill="#1C1C1C"/>
<path d="M6806.58 130.133L6913.34 207.535L6909.6 220.849L6800.58 142.633L6663.84 104.458L6663.08 92.1328L6806.58 130.133Z" fill="#1C1C1C" stroke="#1C1C1C"/>
<path d="M6783.85 240.778L6916.93 237.055L6920.91 250.3L6789.17 251.919L6672.58 351.133L6665.33 341.136L6783.85 240.778Z" fill="#1C1C1C" stroke="#1C1C1C"/>
<path d="M6782.08 308.633L6911.88 284.091L6918.72 296.11L6789.58 322.633L6687.38 420.754L6678.08 412.633L6782.08 308.633Z" fill="#1C1C1C" stroke="#1C1C1C"/>
<path d="M7169.08 423.133L7015.94 355.133L7024.94 344.633L7194.58 416.633L7098.7 528.633H7079.7L7169.08 423.133Z" fill="#1C1C1C" stroke="#1C1C1C"/>
<path d="M6801.77 393.133L6913.77 361.133L6904.77 350.633L6787.27 382.133L6774.44 526.133L6787.27 535.133L6801.77 393.133Z" fill="#1C1C1C" stroke="#1C1C1C"/>
<path d="M7179.08 333.633L7066.41 307.194L7065.26 320.976L7170.08 343.133L7239.56 445.915L7244.58 434.633L7179.08 333.633Z" fill="#1C1C1C" stroke="#1C1C1C"/>
<path d="M7148.58 181.133L7032.06 268.703L7034.8 282.257L7148.58 196.133L7319.91 244.368L7321.58 232.133L7148.58 181.133Z" fill="#1C1C1C" stroke="#1C1C1C"/>
<path d="M7090.39 115.888L7006.15 218.983L7014.21 230.223L7095.96 126.912L7254.58 149.133L7251.09 137.286L7090.39 115.888Z" fill="#1C1C1C" stroke="#1C1C1C"/>
<circle r="109" transform="matrix(1 -8.74228e-08 -8.74228e-08 -1 6970.68 277.715)" fill="#1C411B"/>
<circle r="24.5" transform="matrix(1 -8.74228e-08 -8.74228e-08 -1 6931.18 314.215)" fill="#D9D9D9"/>
<circle r="24.5" transform="matrix(1 -8.74228e-08 -8.74228e-08 -1 6931.18 314.215)" fill="#D9D9D9"/>
<circle r="24.5" transform="matrix(1 -8.74228e-08 -8.74228e-08 -1 7014.18 314.215)" fill="#D9D9D9"/>
<circle r="9" transform="matrix(1 -8.74228e-08 -8.74228e-08 -1 6930.68 325.715)" fill="#1C1C1C"/>
<circle r="9" transform="matrix(1 -8.74228e-08 -8.74228e-08 -1 7013.68 325.715)" fill="#1C1C1C"/>
<ellipse rx="30" ry="13" transform="matrix(-1 0 0 1 6970.77 368.633)" fill="#270D0D"/>
<mask id="mask7_152_54" style="mask-type:alpha" maskUnits="userSpaceOnUse" x="6940" y="355" width="61" height="27">
<ellipse rx="30" ry="13" transform="matrix(-1 0 0 1 6970.77 368.633)" fill="#150707"/>
</mask>
<g mask="url(#mask7_152_54)">
<path d="M6976.77 366.633L6981.96 355.383H6971.57L6976.77 366.633Z" fill="#D9D9D9"/>
<path d="M6964.77 366.633L6969.96 355.383H6959.57L6964.77 366.633Z" fill="#D9D9D9"/>
<path d="M6958.77 370.633L6963.96 381.883H6953.57L6958.77 370.633Z" fill="#D9D9D9"/>
<path d="M6983.77 370.633L6988.96 381.883H6978.57L6983.77 370.633Z" fill="#D9D9D9"/>
</g>
<rect width="13.0661" height="63.366" transform="matrix(0.284876 0.958564 0.958564 -0.284876 6976.3 289.684)" fill="#1C1C1C"/>
<rect x="6967.77" y="289.684" width="13.0661" height="63.366" transform="rotate(106.551 6967.77 289.684)" fill="#1C1C1C"/>
<path d="M6081.33 109.731L6195.69 177.903L6191.95 191.217L6079.86 121.992L5919.52 128.103L5918.75 115.778L6081.33 109.731Z" fill="#1C1C1C" stroke="#1C1C1C"/>
<path d="M6066.19 211.145L6199.28 207.423L6203.25 220.668L6071.52 222.286L5922.68 292.498L5915.43 282.5L6066.19 211.145Z" fill="#1C1C1C" stroke="#1C1C1C"/>
<path d="M6064.43 279L6194.23 254.459L6201.07 266.477L6071.93 293L5999.23 412.621L5989.93 404.5L6064.43 279Z" fill="#1C1C1C" stroke="#1C1C1C"/>
<path d="M6375.93 430.5L6298.29 325.501L6307.29 315.001L6391.43 425L6360.43 531.5H6346.93L6375.93 430.5Z" fill="#1C1C1C" stroke="#1C1C1C"/>
<path d="M6084.11 363.5L6196.11 331.5L6187.11 321L6069.61 352.5L6020.93 488.5L6033.75 497.5L6084.11 363.5Z" fill="#1C1C1C" stroke="#1C1C1C"/>
<path d="M6479.73 253.632L6348.76 277.561L6347.61 291.343L6476.82 265.635L6586.61 386.5L6591.63 375.217L6479.73 253.632Z" fill="#1C1C1C" stroke="#1C1C1C"/>
<path d="M6433.5 179.561L6314.4 239.07L6317.15 252.624L6434.06 191.897L6568.26 295.235L6569.93 283L6433.5 179.561Z" fill="#1C1C1C" stroke="#1C1C1C"/>
<path d="M6372.74 86.2558L6288.5 189.351L6296.56 200.59L6378.31 97.2791L6545.92 78.8465L6542.43 67.0001L6372.74 86.2558Z" fill="#1C1C1C" stroke="#1C1C1C"/>
<circle r="109" transform="matrix(1 -8.74228e-08 -8.74228e-08 -1 6253.03 248.082)" fill="#1C411B"/>
<circle r="24.5" transform="matrix(1 -8.74228e-08 -8.74228e-08 -1 6213.53 284.582)" fill="#D9D9D9"/>
<circle r="24.5" transform="matrix(1 -8.74228e-08 -8.74228e-08 -1 6213.53 284.582)" fill="#D9D9D9"/>
<circle r="24.5" transform="matrix(1 -8.74228e-08 -8.74228e-08 -1 6296.53 284.582)" fill="#D9D9D9"/>
<circle r="9" transform="matrix(1 -8.74228e-08 -8.74228e-08 -1 6213.03 296.082)" fill="#1C1C1C"/>
<circle r="9" transform="matrix(1 -8.74228e-08 -8.74228e-08 -1 6296.03 296.082)" fill="#1C1C1C"/>
<ellipse rx="30" ry="13" transform="matrix(-1 0 0 1 6253.11 339)" fill="#270D0D"/>
<mask id="mask8_152_54" style="mask-type:alpha" maskUnits="userSpaceOnUse" x="6223" y="325" width="61" height="27">
<ellipse rx="30" ry="13" transform="matrix(-1 0 0 1 6253.11 339)" fill="#150707"/>
</mask>
<g mask="url(#mask8_152_54)">
<path d="M6259.11 337L6264.31 325.75H6253.92L6259.11 337Z" fill="#D9D9D9"/>
<path d="M6247.11 337L6252.31 325.75H6241.92L6247.11 337Z" fill="#D9D9D9"/>
<path d="M6241.11 341L6246.31 352.25H6235.92L6241.11 341Z" fill="#D9D9D9"/>
<path d="M6266.11 341L6271.31 352.25H6260.92L6266.11 341Z" fill="#D9D9D9"/>
</g>
<rect width="13.0661" height="63.366" transform="matrix(0.284876 0.958564 0.958564 -0.284876 6258.65 260.051)" fill="#1C1C1C"/>
<rect x="6250.11" y="260.051" width="13.0661" height="63.366" transform="rotate(106.551 6250.11 260.051)" fill="#1C1C1C"/>
<g clip-path="url(#clip1_152_54)">
<path d="M5701.6 92.7306L5587.24 160.903L5590.98 174.217L5703.07 104.992L5851.55 152.326L5852.32 140L5701.6 92.7306Z" fill="#1C1C1C" stroke="#1C1C1C"/>
<path d="M5716.74 194.145L5583.65 190.423L5579.68 203.668L5711.41 205.286L5843.51 296.37L5850.76 286.372L5716.74 194.145Z" fill="#1C1C1C" stroke="#1C1C1C"/>
<path d="M5717.57 270.877L5588.7 237.458L5581.86 249.477L5709.88 280.542L5818.25 398.886L5827.55 390.765L5717.57 270.877Z" fill="#1C1C1C" stroke="#1C1C1C"/>
<path d="M5422.82 432.5L5484.64 308.5L5475.64 298L5412.32 422.5L5387.82 541.5L5398.32 551L5422.82 432.5Z" fill="#1C1C1C" stroke="#1C1C1C"/>
<path d="M5698.82 346.5L5586.82 314.5L5595.82 304L5713.32 335.5L5684.32 489.5H5670.99L5698.82 346.5Z" fill="#1C1C1C" stroke="#1C1C1C"/>
<path d="M5303.2 236.632L5434.17 260.561L5435.32 274.343L5306.11 248.635L5196.32 369.5L5191.3 358.217L5303.2 236.632Z" fill="#1C1C1C" stroke="#1C1C1C"/>
<path d="M5349.43 162.561L5468.53 222.07L5465.78 235.624L5348.87 174.897L5191.09 238.735L5189.42 226.5L5349.43 162.561Z" fill="#1C1C1C" stroke="#1C1C1C"/>
<path d="M5410.19 69.2557L5494.43 172.351L5486.37 183.59L5404.62 80.279L5251.81 31.3231L5255.3 19.4767L5410.19 69.2557Z" fill="#1C1C1C" stroke="#1C1C1C"/>
<circle cx="5529.9" cy="231.082" r="109" transform="rotate(-180 5529.9 231.082)" fill="#1C411B"/>
<circle cx="5569.4" cy="267.582" r="24.5" transform="rotate(-180 5569.4 267.582)" fill="#D9D9D9"/>
<circle cx="5569.4" cy="267.582" r="24.5" transform="rotate(-180 5569.4 267.582)" fill="#D9D9D9"/>
<circle cx="5486.4" cy="267.582" r="24.5" transform="rotate(-180 5486.4 267.582)" fill="#D9D9D9"/>
<circle cx="5569.9" cy="279.082" r="9" transform="rotate(-180 5569.9 279.082)" fill="#1C1C1C"/>
<circle cx="5486.9" cy="279.082" r="9" transform="rotate(-180 5486.9 279.082)" fill="#1C1C1C"/>
<ellipse cx="5529.82" cy="322" rx="30" ry="13" fill="#270D0D"/>
<mask id="mask9_152_54" style="mask-type:alpha" maskUnits="userSpaceOnUse" x="5499" y="308" width="61" height="27">
<ellipse cx="5529.82" cy="322" rx="30" ry="13" fill="#150707"/>
</mask>
<g mask="url(#mask9_152_54)">
<path d="M5523.82 320L5518.62 308.75H5529.01L5523.82 320Z" fill="#D9D9D9"/>
<path d="M5535.82 320L5530.62 308.75H5541.01L5535.82 320Z" fill="#D9D9D9"/>
<path d="M5541.82 324L5536.62 335.25H5547.01L5541.82 324Z" fill="#D9D9D9"/>
<path d="M5516.82 324L5511.62 335.25H5522.01L5516.82 324Z" fill="#D9D9D9"/>
</g>
<rect x="5524.28" y="243.051" width="13.0661" height="63.366" transform="rotate(106.551 5524.28 243.051)" fill="#1C1C1C"/>
<rect width="13.0661" height="63.366" transform="matrix(0.284876 0.958564 0.958564 -0.284876 5532.82 243.051)" fill="#1C1C1C"/>
</g>
<path d="M4929 96L4854 206L4863 216.5L4935.5 106.5L5083.5 44.5L5079 33L4929 96Z" fill="#1C1C1C" stroke="#1C1C1C"/>
<path d="M4998.44 203.899L4867.47 227.828L4866.32 241.61L4995.53 215.902L5143.64 277.641L5148.66 266.359L4998.44 203.899Z" fill="#1C1C1C" stroke="#1C1C1C"/>
<path d="M4990.73 287.32L4860.75 258.485L4854.34 270.738L4983.39 297.252L5095.87 411.685L5104.88 403.24L4990.73 287.32Z" fill="#1C1C1C" stroke="#1C1C1C"/>
<path d="M4967.61 363.363L4859.66 285.433L4848.93 294.148L4956.94 369.578L5014.94 519.191L5026.55 515.002L4967.61 363.363Z" fill="#1C1C1C" stroke="#1C1C1C"/>
<path d="M4638.83 96L4713.83 206L4704.83 216.5L4632.33 106.5L4484.33 44.5L4488.83 33L4638.83 96Z" fill="#1C1C1C" stroke="#1C1C1C"/>
<path d="M4569.39 203.899L4700.36 227.828L4701.5 241.61L4572.29 215.902L4424.18 277.641L4419.16 266.359L4569.39 203.899Z" fill="#1C1C1C" stroke="#1C1C1C"/>
<path d="M4577.1 287.32L4707.08 258.485L4713.49 270.738L4584.44 297.252L4471.95 411.685L4462.94 403.24L4577.1 287.32Z" fill="#1C1C1C" stroke="#1C1C1C"/>
<path d="M4600.22 363.363L4708.16 285.433L4718.9 294.148L4610.89 369.578L4552.89 519.191L4541.27 515.002L4600.22 363.363Z" fill="#1C1C1C" stroke="#1C1C1C"/>
<circle cx="4784.08" cy="251.082" r="109" transform="rotate(-180 4784.08 251.082)" fill="#1C411B"/>
<circle cx="4823.58" cy="287.582" r="24.5" transform="rotate(-180 4823.58 287.582)" fill="#D9D9D9"/>
<circle cx="4823.58" cy="287.582" r="24.5" transform="rotate(-180 4823.58 287.582)" fill="#D9D9D9"/>
<circle cx="4740.58" cy="287.582" r="24.5" transform="rotate(-180 4740.58 287.582)" fill="#D9D9D9"/>
<circle cx="4824.08" cy="299.082" r="9" transform="rotate(-180 4824.08 299.082)" fill="#1C1C1C"/>
<circle cx="4741.08" cy="299.082" r="9" transform="rotate(-180 4741.08 299.082)" fill="#1C1C1C"/>
<ellipse cx="4784" cy="342" rx="30" ry="13" fill="#270D0D"/>
<mask id="mask10_152_54" style="mask-type:alpha" maskUnits="userSpaceOnUse" x="4754" y="329" width="61" height="26">
<ellipse cx="4784" cy="342" rx="30" ry="13" fill="#150707"/>
</mask>
<g mask="url(#mask10_152_54)">
<path d="M4778 340L4772.8 328.75H4783.2L4778 340Z" fill="#D9D9D9"/>
<path d="M4790 340L4784.8 328.75H4795.2L4790 340Z" fill="#D9D9D9"/>
<path d="M4796 344L4790.8 355.25H4801.2L4796 344Z" fill="#D9D9D9"/>
<path d="M4771 344L4765.8 355.25H4776.2L4771 344Z" fill="#D9D9D9"/>
</g>
<rect x="4778.46" y="263.051" width="13.0661" height="63.366" transform="rotate(106.551 4778.46 263.051)" fill="#1C1C1C"/>
<rect width="13.0661" height="63.366" transform="matrix(0.284876 0.958564 0.958564 -0.284876 4787 263.051)" fill="#1C1C1C"/>
<path d="M3873.33 109.731L3987.69 177.903L3983.95 191.217L3871.86 121.992L3711.52 128.103L3710.75 115.778L3873.33 109.731Z" fill="#1C1C1C" stroke="#1C1C1C"/>
<path d="M3858.19 211.145L3991.28 207.423L3995.25 220.668L3863.52 222.286L3714.68 292.498L3707.43 282.5L3858.19 211.145Z" fill="#1C1C1C" stroke="#1C1C1C"/>
<path d="M3856.43 279L3986.23 254.459L3993.07 266.477L3863.93 293L3791.23 412.621L3781.93 404.5L3856.43 279Z" fill="#1C1C1C" stroke="#1C1C1C"/>
<path d="M4167.93 430.5L4090.29 325.501L4099.29 315.001L4183.43 425L4152.43 531.5H4138.93L4167.93 430.5Z" fill="#1C1C1C" stroke="#1C1C1C"/>
<path d="M3876.11 363.5L3988.11 331.5L3979.11 321L3861.61 352.5L3812.93 488.5L3825.75 497.5L3876.11 363.5Z" fill="#1C1C1C" stroke="#1C1C1C"/>
<path d="M4271.73 253.632L4140.76 277.561L4139.61 291.343L4268.82 265.635L4378.61 386.5L4383.63 375.217L4271.73 253.632Z" fill="#1C1C1C" stroke="#1C1C1C"/>
<path d="M4225.5 179.561L4106.4 239.07L4109.15 252.624L4226.06 191.897L4360.26 295.235L4361.93 283L4225.5 179.561Z" fill="#1C1C1C" stroke="#1C1C1C"/>
<path d="M4164.74 86.2558L4080.5 189.351L4088.56 200.59L4170.31 97.2791L4337.92 78.8465L4334.43 67.0001L4164.74 86.2558Z" fill="#1C1C1C" stroke="#1C1C1C"/>
<circle r="109" transform="matrix(1 -8.74228e-08 -8.74228e-08 -1 4045.03 248.082)" fill="#1C411B"/>
<circle r="24.5" transform="matrix(1 -8.74228e-08 -8.74228e-08 -1 4005.53 284.582)" fill="#D9D9D9"/>
<circle r="24.5" transform="matrix(1 -8.74228e-08 -8.74228e-08 -1 4005.53 284.582)" fill="#D9D9D9"/>
<circle r="24.5" transform="matrix(1 -8.74228e-08 -8.74228e-08 -1 4088.53 284.582)" fill="#D9D9D9"/>
<circle r="9" transform="matrix(1 -8.74228e-08 -8.74228e-08 -1 4005.03 296.082)" fill="#1C1C1C"/>
<circle r="9" transform="matrix(1 -8.74228e-08 -8.74228e-08 -1 4088.03 296.082)" fill="#1C1C1C"/>
<ellipse rx="30" ry="13" transform="matrix(-1 0 0 1 4045.11 339)" fill="#270D0D"/>
<mask id="mask11_152_54" style="mask-type:alpha" maskUnits="userSpaceOnUse" x="4015" y="325" width="61" height="27">
<ellipse rx="30" ry="13" transform="matrix(-1 0 0 1 4045.11 339)" fill="#150707"/>
</mask>
<g mask="url(#mask11_152_54)">
<path d="M4051.11 337L4056.31 325.75H4045.92L4051.11 337Z" fill="#D9D9D9"/>
<path d="M4039.11 337L4044.31 325.75H4033.92L4039.11 337Z" fill="#D9D9D9"/>
<path d="M4033.11 341L4038.31 352.25H4027.92L4033.11 341Z" fill="#D9D9D9"/>
<path d="M4058.11 341L4063.31 352.25H4052.92L4058.11 341Z" fill="#D9D9D9"/>
</g>
<rect width="13.0661" height="63.366" transform="matrix(0.284876 0.958564 0.958564 -0.284876 4050.65 260.051)" fill="#1C1C1C"/>
<rect x="4042.11" y="260.051" width="13.0661" height="63.366" transform="rotate(106.551 4042.11 260.051)" fill="#1C1C1C"/>
<defs>
<clipPath id="clip0_152_54">
<rect width="736" height="551" fill="white" transform="translate(736)"/>
</clipPath>
<clipPath id="clip1_152_54">
<rect width="736" height="551" fill="white" transform="translate(5152)"/>
</clipPath>
</defs>
</svg>
