<svg width="384" height="369" viewBox="0 0 384 369" fill="none" xmlns="http://www.w3.org/2000/svg">
<path d="M230.971 1L222.936 78.7638L198.498 173.33L162.01 258.269L117.336 339.092" stroke="black" stroke-width="4"/>
<path d="M77.6502 19.793L146.611 76.8198L204.859 152.639L243.691 236.236L267.794 325.664" stroke="black" stroke-width="4"/>
<path d="M49.5311 281.598L126.526 209.666L205.119 153.225L290.986 116.666L382.741 94.1961" stroke="black" stroke-width="4"/>
<path d="M8.69037 199.946L105.101 165.6L203.779 152.041L297.011 162.083L382.283 191.521M8.69037 199.946L105.101 165.6" stroke="black" stroke-width="4"/>
<path d="M25.4278 102.093L123.847 119.59L205.529 151.343L291.22 210.585L351.484 275.766" stroke="black" stroke-width="4"/>
<path d="M176.74 116.35L185.229 120.238L196.548 120.886L207.866 116.35L214.233 111.813" stroke="black" stroke-width="4"/>
<path d="M215.085 108.316L218.161 117.639L225.792 127.086L237.459 133.123L245.566 135.214" stroke="black" stroke-width="4"/>
<path d="M145.641 127.964L154.601 129.981L165.508 128.246L175.229 121.456L180.242 115.702" stroke="black" stroke-width="4"/>
<path d="M144.957 159.841L151.259 154.848L155.291 146.555L154.327 136.391L151.872 129.958" stroke="black" stroke-width="4"/>
<path d="M158.966 186.484L161.616 179.03L160.541 169.923L154.201 161.767L148.619 157.544" stroke="black" stroke-width="4"/>
<path d="M187.834 194.807L183.456 188.161L175.423 183.306L164.882 183.033L157.992 184.633" stroke="black" stroke-width="4"/>
<path d="M223.406 193.137L216.548 188.322L206.78 186.397L196.298 189.61L190.129 193.385" stroke="black" stroke-width="4"/>
<path d="M242.079 175.288L234.52 175.249L226.91 179.052L222.123 187.262L220.51 193.566" stroke="black" stroke-width="4"/>
<path d="M248.014 156.671L242.288 158.913L238.816 163.991L240.098 171.454L242.64 176.565" stroke="black" stroke-width="4"/>
<path d="M244.307 135.831L241.114 141.327L241.489 147.966L247.159 153.82L252.375 156.811" stroke="black" stroke-width="4"/>
<path d="M139.247 70.3394L162.254 79.4118L188.747 84.5961L208.965 82.0039L223.606 73.5795" stroke="black" stroke-width="4"/>
<path d="M222.936 74.8755L236.996 98.2046L257.752 113.109L275.829 116.329L292.937 116.329" stroke="black" stroke-width="4"/>
<path d="M227.623 31.4575L259.091 67.7473L279.176 82.652L299.262 93.6685L327.003 108.817" stroke="black" stroke-width="4"/>
<path d="M105.77 42.4976L154.403 47.8716L179.573 45.309L201.979 39.9252L230.165 31.0227" stroke="black" stroke-width="4"/>
<path d="M99.7451 115.701L121.17 106.629L133.221 96.9085L137.908 84.5959L139.03 69.4021" stroke="black" stroke-width="4"/>
<path d="M239.675 229.107L217.581 219.405L201.512 219.405L187.452 223.923L172.723 232.995" stroke="black" stroke-width="4"/>
<path d="M91.7101 170.784L102.14 155.985L106.37 141.364L103.015 128.65L89.8111 113.109" stroke="black" stroke-width="4"/>
<path d="M121.618 214.851L121.618 198.49L115.426 184.539L104.568 176.682L84.2102 172.61" stroke="black" stroke-width="4"/>
<path d="M273.151 198.002L260.43 199.298L251.726 202.538L244.816 210.153L239.674 228.459" stroke="black" stroke-width="4"/>
<path d="M293.236 161.064L285.201 164.304L278.207 171.409L273.662 180.539L273.782 199.509" stroke="black" stroke-width="4"/>
<path d="M281.125 119.949L277.286 127.51L276.86 137.314L279.655 147.082L291.227 161.064" stroke="black" stroke-width="4"/>
<path d="M170.714 237.532L164.019 225.867L152.637 217.443L138.577 215.989L119.069 215.989" stroke="black" stroke-width="4"/>
<path d="M170.714 237.532L164.019 225.867L152.637 217.443L138.577 215.989L119.069 215.989" stroke="black" stroke-width="4"/>
<path d="M49.5311 105.333L74.3034 90.4283L90.3719 76.1716L99.0757 63.2109L106.44 41.1779" stroke="black" stroke-width="4"/>
<path d="M51.4026 185.286L58.1692 157.824L59.0316 140.57L55.7939 125.433L47.5221 104.685" stroke="black" stroke-width="4"/>
<path d="M83.676 248.548L83.676 220.034L76.4189 204.977L65.363 193.822L46.8523 185.689" stroke="black" stroke-width="4"/>
<path d="M142.892 289.741L130.543 264.101L118.491 254.38L102.423 248.548L83.6763 248.548" stroke="black" stroke-width="4"/>
<path d="M143.933 290.67L157.324 283.542L170.714 276.413L185.444 271.877L200.173 269.285L214.903 270.581L229.632 273.821L243.022 276.413L256.413 282.246" stroke="black" stroke-width="4"/>
<path d="M256.412 280.302L261.099 268.637L266.08 258.834L275.422 251.749L285.278 246.544L296.162 245.097L307.296 245.097L317.827 245.581L325.373 246.544" stroke="black" stroke-width="4"/>
<path d="M335.416 174.672L325.373 180.505L318.008 186.985L315.666 195.351L314.75 201.242L314.75 209.018L315.666 217.443L317.172 229.107L319.532 238.18L322.025 245.308" stroke="black" stroke-width="4"/>
<path d="M329.39 106.629L322.025 115.702L319.347 126.07L319.347 134.494L320.686 139.679L323.414 145.902L327.439 153.424L333.232 163.756L338.846 171.372L345.459 179.209" stroke="black" stroke-width="4"/>
</svg>
