<svg width="712" height="382" viewBox="0 0 712 382" fill="none" xmlns="http://www.w3.org/2000/svg">
<path d="M370 3.75143L401.334 24.5951L377 91.2519L370 155.752L320 153.252L338.5 66.7519L370 3.75143Z" fill="#44320E"/>
<path d="M711.263 242.56C704.887 356.151 552.737 380.28 337.432 379.853C48.8885 386.206 0.119739 319.303 0.257149 250.016C2.50252 116.356 122.625 128.515 337.93 128.942C561.792 122.641 716.991 140.538 711.263 242.56Z" fill="#44320E"/>
<path d="M199 243.5C199 297.348 156.019 341 103 341C49.9807 341 7 297.348 7 243.5C7 189.652 49.9807 146 103 146C156.019 146 199 189.652 199 243.5Z" fill="#A39964"/>
<path d="M107.116 247.883L107.163 247.978L107.208 248.074L107.253 248.17L107.297 248.267L107.34 248.366L107.381 248.465L107.422 248.565L107.462 248.666L107.501 248.768L107.538 248.87L107.575 248.974L107.61 249.078L107.644 249.183L107.678 249.289L107.71 249.396L107.741 249.503L107.77 249.612L107.799 249.721L107.826 249.83L107.853 249.941L107.878 250.052L107.901 250.164L107.924 250.277L107.945 250.39L107.965 250.504L107.984 250.619L108.002 250.734L108.018 250.85L108.033 250.966L108.047 251.083L108.059 251.201L108.07 251.319L108.08 251.438L108.088 251.557L108.095 251.677L108.101 251.797L108.105 251.918L108.108 252.039L108.109 252.161L108.109 252.283L108.108 252.406L108.105 252.529L108.101 252.652L108.095 252.776L108.088 252.9L108.08 253.025L108.07 253.15L108.058 253.275L108.045 253.4L108.031 253.526L108.015 253.652L107.998 253.778L107.979 253.905L107.958 254.031L107.936 254.158L107.913 254.285L107.888 254.412L107.862 254.54L107.834 254.667L107.804 254.795L107.773 254.922L107.74 255.05L107.706 255.178L107.67 255.306L107.633 255.434L107.594 255.561L107.554 255.689L107.512 255.817L107.468 255.944L107.423 256.072L107.376 256.2L107.328 256.327L107.278 256.454L107.226 256.581L107.173 256.708L107.118 256.835L107.062 256.961L107.004 257.088L106.945 257.214L106.884 257.339L106.821 257.465L106.757 257.59L106.691 257.715L106.623 257.839L106.554 257.964L106.483 258.087L106.411 258.211L106.337 258.333L106.262 258.456L106.185 258.578L106.106 258.699L106.026 258.82L105.944 258.941L105.861 259.061L105.776 259.18L105.689 259.299L105.601 259.417L105.511 259.535L105.42 259.652L105.327 259.768L105.233 259.883L105.137 259.998L105.039 260.113L104.94 260.226L104.84 260.339L104.738 260.45L104.634 260.562L104.529 260.672L104.422 260.781L104.314 260.89L104.204 260.998L104.093 261.104L103.98 261.21L103.866 261.315L103.751 261.419L103.633 261.522L103.515 261.624L103.395 261.726L103.273 261.826L103.151 261.925L103.026 262.023L102.9 262.119L102.773 262.215L102.645 262.31L102.515 262.403L102.383 262.496L102.251 262.587L102.117 262.677L101.981 262.766L101.845 262.853L101.706 262.939L101.567 263.024L101.426 263.108L101.284 263.191L101.141 263.272L100.997 263.352L100.851 263.43L100.704 263.507L100.556 263.583L100.406 263.657L100.256 263.73L100.104 263.801L99.9507 263.871L99.7965 263.94L99.6412 264.007L99.4847 264.073L99.3271 264.137L99.1684 264.199L99.0086 264.26L98.8478 264.32L98.6859 264.377L98.5229 264.434L98.359 264.488L98.194 264.541L98.028 264.593L97.861 264.642L97.6931 264.69L97.5242 264.737L97.3544 264.781L97.1837 264.824L97.0121 264.866L96.8397 264.905L96.6663 264.943L96.4921 264.979L96.3171 265.013L96.1413 265.046L95.9648 265.076L95.7874 265.105L95.6093 265.132L95.4305 265.157L95.2509 265.18L95.0707 265.202L94.8898 265.222L94.7082 265.239L94.526 265.255L94.3432 265.269L94.1598 265.281L93.9758 265.291L93.7913 265.299L93.6062 265.305L93.4207 265.31L93.2346 265.312L93.0481 265.312L92.8611 265.31L92.6737 265.307L92.4859 265.301L92.2977 265.293L92.1091 265.284L91.9202 265.272L91.731 265.258L91.5415 265.242L91.3517 265.224L91.1616 265.204L90.9713 265.182L90.7808 265.158L90.5902 265.132L90.3993 265.104L90.2083 265.074L90.0172 265.041L89.826 265.007L89.6348 264.97L89.4434 264.931L89.2521 264.89L89.0607 264.848L88.8694 264.802L88.6781 264.755L88.4869 264.706L88.2958 264.654L88.1048 264.601L87.9139 264.545L87.7232 264.487L87.5326 264.427L87.3423 264.365L87.1522 264.301L86.9624 264.234L86.7729 264.166L86.5836 264.095L86.3947 264.022L86.2062 263.947L86.018 263.87L85.8302 263.79L85.6429 263.709L85.456 263.625L85.2696 263.539L85.0836 263.451L84.8983 263.361L84.7134 263.269L84.5292 263.174L84.3455 263.078L84.1624 262.979L83.9801 262.878L83.7983 262.775L83.6173 262.67L83.437 262.563L83.2574 262.454L83.0787 262.342L82.9007 262.229L82.7235 262.113L82.5472 261.995L82.3717 261.875L82.1972 261.753L82.0235 261.629L81.8508 261.503L81.6791 261.375L81.5083 261.244L81.3386 261.112L81.1699 260.978L81.0023 260.841L80.8357 260.703L80.6703 260.562L80.506 260.42L80.3429 260.275L80.1809 260.128L80.0202 259.98L79.8607 259.829L79.7025 259.677L79.5455 259.522L79.3898 259.366L79.2355 259.207L79.0825 259.047L78.9309 258.885L78.7806 258.721L78.6318 258.555L78.4845 258.387L78.3386 258.217L78.1942 258.045L78.0513 257.872L77.9099 257.696L77.7701 257.519L77.6319 257.34L77.4953 257.159L77.3603 256.976L77.2269 256.792L77.0952 256.606L76.9653 256.418L76.837 256.229L76.7104 256.037L76.5856 255.844L76.4626 255.65L76.3414 255.453L76.222 255.255L76.1044 255.056L75.9887 254.854L75.8749 254.652L75.7629 254.447L75.6529 254.241L75.5449 254.034L75.4388 253.825L75.3346 253.614L75.2325 253.402L75.1324 253.189L75.0343 252.974L74.9383 252.758L74.8444 252.54L74.7525 252.321L74.6628 252.1L74.5752 251.879L74.4897 251.655L74.4065 251.431L74.3254 251.205L74.2465 250.978L74.1698 250.75L74.0954 250.52L74.0232 250.29L73.9533 250.058L73.8856 249.825L73.8203 249.591L73.7573 249.355L73.6966 249.119L73.6383 248.882L73.5823 248.643L73.5287 248.404L73.4776 248.163L73.4288 247.922L73.3824 247.679L73.3385 247.436L73.2971 247.192L73.2581 246.947L73.2215 246.701L73.1875 246.454L73.156 246.207L73.127 245.958L73.1005 245.709L73.0766 245.46L73.0552 245.209L73.0364 244.958L73.0201 244.706L73.0065 244.454L72.9954 244.201L72.9869 243.947L72.9811 243.693L72.9779 243.439L72.9773 243.184L72.9794 242.928L72.9841 242.672L72.9915 242.416L73.0016 242.159L73.0144 241.902L73.0298 241.645L73.048 241.387L73.0688 241.129L73.0924 240.871L73.1186 240.612L73.1476 240.354L73.1794 240.095L73.2138 239.836L73.251 239.577L73.291 239.318L73.3337 239.059L73.3792 238.8L73.4274 238.541L73.4784 238.283L73.5321 238.024L73.5887 237.765L73.648 237.506L73.71 237.248L73.7749 236.99L73.8426 236.732L73.913 236.474L73.9862 236.217L74.0622 235.96L74.141 235.703L74.2226 235.447L74.3069 235.191L74.3941 234.935L74.484 234.68L74.5768 234.426L74.6723 234.172L74.7706 233.918L74.8717 233.665L74.9755 233.413L75.0822 233.162L75.1916 232.911L75.3038 232.66L75.4188 232.411L75.5365 232.162L75.657 231.915L75.7802 231.668L75.9062 231.421L76.035 231.176L76.1664 230.932L76.3007 230.689L76.4376 230.446L76.5773 230.205L76.7197 229.965L76.8648 229.725L77.0126 229.487L77.1631 229.25L77.3163 229.014L77.4721 228.78L77.6307 228.546L77.7919 228.314L77.9557 228.083L78.1222 227.854L78.2913 227.626L78.4631 227.399L78.6374 227.173L78.8144 226.949L78.9939 226.727L79.176 226.506L79.3607 226.286L79.5479 226.068L79.7377 225.852L79.93 225.637L80.1248 225.424L80.3221 225.213L80.5219 225.003L80.7242 224.795L80.9289 224.589L81.1361 224.384L81.3457 224.181L81.5577 223.981L81.7721 223.782L81.9889 223.584L82.208 223.389L82.4295 223.196L82.6533 223.005L82.8794 222.816L83.1078 222.628L83.3385 222.443L83.5715 222.26L83.8067 222.079L84.0441 221.9L84.2837 221.724L84.5255 221.549L84.7694 221.377L85.0155 221.207L85.2637 221.039L85.514 220.874L85.7664 220.71L86.0208 220.549L86.2773 220.391L86.5358 220.235L86.7962 220.081L87.0587 219.93L87.323 219.781L87.5893 219.635L87.8576 219.491L88.1276 219.35L88.3996 219.211L88.6733 219.075L88.9489 218.942L89.2262 218.811L89.5053 218.683L89.7861 218.557L90.0686 218.434L90.3528 218.314L90.6386 218.196L90.926 218.082L91.2151 217.97L91.5057 217.861L91.7979 217.754L92.0916 217.651L92.3867 217.55L92.6833 217.453L92.9814 217.358L93.2808 217.266L93.5817 217.177L93.8838 217.091L94.1873 217.008L94.4921 216.927L94.7981 216.85L95.1054 216.776L95.4139 216.705L95.7235 216.637L96.0342 216.572L96.3461 216.51L96.6591 216.451L96.9731 216.396L97.2881 216.343L97.604 216.294L97.921 216.247L98.2389 216.204L98.5576 216.164L98.8772 216.128L99.1976 216.094L99.5188 216.064L99.8408 216.037L100.164 216.013L100.487 215.993L100.811 215.975L101.136 215.961L101.461 215.951L101.787 215.943L102.113 215.939L102.44 215.939L102.767 215.941L103.095 215.947L103.423 215.957L103.752 215.969L104.08 215.985L104.409 216.005L104.739 216.027L105.068 216.054L105.398 216.083L105.728 216.116L106.058 216.152L106.388 216.192L106.718 216.235L107.048 216.282L107.378 216.332L107.708 216.386L108.038 216.442L108.368 216.503L108.697 216.567L109.027 216.634L109.356 216.705L109.685 216.779L110.013 216.856L110.341 216.937L110.669 217.022L110.996 217.11L111.323 217.201L111.65 217.296L111.975 217.394L112.301 217.496L112.625 217.601L112.949 217.71L113.273 217.822L113.595 217.937L113.917 218.056L114.238 218.179L114.558 218.304L114.878 218.434L115.196 218.566L115.514 218.702L115.83 218.842L116.146 218.985L116.46 219.131L116.773 219.281L117.086 219.434L117.397 219.59L117.707 219.75L118.015 219.913L118.323 220.079L118.629 220.249L118.933 220.422L119.237 220.599L119.539 220.779L119.839 220.962L120.138 221.148L120.436 221.338L120.732 221.531L121.026 221.727L121.319 221.926L121.61 222.129L121.899 222.335L122.187 222.544L122.472 222.756L122.756 222.971L123.039 223.19L123.319 223.412L123.597 223.637L123.874 223.865L124.148 224.096L124.421 224.33L124.691 224.567L124.959 224.807L125.225 225.051L125.489 225.297L125.751 225.546L126.011 225.798L126.268 226.053L126.523 226.312L126.776 226.573L127.027 226.837L127.275 227.103L127.52 227.373L127.763 227.645L128.004 227.921L128.242 228.199L128.478 228.48L128.711 228.763L128.941 229.049L129.169 229.338L129.394 229.63L129.617 229.924L129.837 230.221L130.054 230.521L130.268 230.823L130.479 231.127L130.688 231.434L130.893 231.744L131.096 232.056L131.296 232.37L131.492 232.687L131.686 233.006L131.877 233.328L132.065 233.652L132.249 233.978L132.431 234.307L132.609 234.637L132.785 234.97L132.957 235.305L133.126 235.643L133.291 235.982L133.454 236.323L133.613 236.667L133.769 237.012L133.921 237.36L134.07 237.709L134.216 238.061L134.358 238.414L134.497 238.769L134.632 239.126L134.764 239.485L134.893 239.845L135.018 240.207L135.139 240.571L135.257 240.937L135.371 241.304L135.482 241.673L135.589 242.043L135.692 242.415L135.791 242.788L135.887 243.163L135.98 243.539L136.068 243.917L136.153 244.296L136.234 244.676L136.311 245.057L136.385 245.44L136.455 245.824L136.52 246.209L136.582 246.595L136.641 246.982L136.695 247.37L136.745 247.759L136.792 248.149L136.834 248.54L136.873 248.932L136.908 249.325L136.938 249.719L136.965 250.113L136.988 250.508L137.007 250.904L137.021 251.3L137.032 251.697L137.039 252.094L137.041 252.492L137.04 252.891L137.035 253.29L137.025 253.689L137.012 254.089L136.994 254.489L136.972 254.889L136.947 255.289L136.917 255.69L136.883 256.091L136.844 256.492L136.802 256.893L136.756 257.294L136.705 257.695L136.651 258.095L136.592 258.496L136.529 258.897L136.462 259.297L136.391 259.697L136.315 260.097L136.236 260.497L136.152 260.896L136.064 261.295L135.972 261.693L135.876 262.091L135.776 262.488L135.672 262.885L135.563 263.281L135.45 263.677L135.334 264.071L135.213 264.465L135.088 264.858L134.958 265.251L134.825 265.642L134.687 266.033L134.546 266.422L134.4 266.811L134.25 267.198L134.096 267.585L133.938 267.97L133.776 268.354L133.61 268.737L133.44 269.118L133.266 269.499L133.087 269.877L132.905 270.255L132.718 270.631L132.528 271.006L132.334 271.379L132.135 271.75L131.933 272.12L131.726 272.488L131.516 272.855L131.302 273.219L131.083 273.582L130.861 273.943L130.635 274.303L130.405 274.66L130.172 275.015L129.934 275.369L129.692 275.72L129.447 276.07L129.198 276.417L128.945 276.762L128.688 277.105L128.428 277.445L128.164 277.784L127.896 278.12L127.624 278.453L127.349 278.785L127.07 279.113L126.788 279.44L126.502 279.764L126.212 280.085L125.919 280.404L125.622 280.72L125.322 281.033L125.018 281.344L124.711 281.651L124.4 281.957L124.086 282.259L123.769 282.558L123.448 282.855L123.123 283.148L122.796 283.439L122.465 283.727L122.131 284.011L121.794 284.293L121.453 284.571L121.11 284.846L120.763 285.118L120.413 285.387L120.06 285.652L119.704 285.914L119.345 286.173L118.983 286.429L118.618 286.681L118.25 286.93L117.879 287.175L117.506 287.416L117.129 287.655L116.75 287.889L116.368 288.12L115.983 288.348L115.596 288.571L115.206 288.791L114.813 289.008L114.418 289.22L114.02 289.429L113.619 289.634L113.216 289.835L112.811 290.032L112.404 290.226L111.993 290.415L111.581 290.6L111.166 290.782L110.75 290.959L110.33 291.133L109.909 291.302L109.486 291.468L109.06 291.629L108.633 291.786L108.203 291.939L107.771 292.087L107.338 292.232L106.903 292.372L106.465 292.508L106.026 292.64L105.586 292.767L105.143 292.89L104.699 293.009L104.253 293.124L103.806 293.234L103.357 293.339L102.906 293.44L102.454 293.537L102.001 293.629L101.546 293.717L101.09 293.8L100.633 293.879L100.174 293.953L99.7147 294.023L99.2538 294.088L98.7918 294.148L98.3288 294.204L97.8647 294.255L97.3997 294.302L96.9338 294.344L96.467 294.381L95.9994 294.414L95.531 294.442L95.0619 294.465L94.592 294.483L94.1216 294.497L93.6506 294.506L93.179 294.511L92.707 294.51L92.2345 294.505L91.7616 294.495L91.2884 294.48L90.8149 294.461L90.3411 294.437L89.8671 294.407L89.393 294.373L88.9188 294.335L88.4445 294.291L87.9703 294.243L87.4961 294.19L87.0219 294.132L86.548 294.069L86.0742 294.001L85.6006 293.928L85.1274 293.851L84.6545 293.769L84.182 293.682L83.7099 293.59L83.2384 293.493L82.7673 293.391L82.2969 293.285L81.8271 293.173L81.3581 293.057L80.8897 292.936L80.4222 292.81L79.9555 292.68L79.4897 292.544L79.0248 292.404L78.5609 292.259L78.0981 292.109L77.6364 291.954L77.1758 291.795L76.7164 291.63L76.2583 291.461L75.8014 291.287L75.3459 291.109L74.8918 290.925L74.4391 290.737L73.988 290.544L73.5383 290.347L73.0903 290.145L72.6439 289.938L72.1992 289.726L71.7563 289.51L71.3151 289.289L70.8758 289.063L70.4383 288.833L70.0028 288.598L69.5693 288.358L69.1378 288.114L68.7085 287.865L68.2812 287.612L67.8561 287.354L67.4333 287.092L67.0127 286.825L66.5944 286.554L66.1786 286.279L65.7651 285.998L65.3541 285.714L64.9456 285.425L64.5397 285.132L64.1364 284.834L63.7358 284.532L63.3378 284.226L62.9426 283.915L62.5502 283.6L62.1607 283.281L61.774 282.958L61.3902 282.631L61.0094 282.299L60.6317 281.963L60.257 281.624L59.8854 281.28L59.517 280.932L59.1518 280.58L58.7898 280.224L58.4311 279.864L58.0757 279.5L57.7237 279.133L57.3751 278.761L57.03 278.386L56.6883 278.006L56.3502 277.623L56.0157 277.237L55.6848 276.846L55.3576 276.452L55.0341 276.054L54.7143 275.653L54.3983 275.248L54.0861 274.84L53.7778 274.428L53.4734 274.012L53.1729 273.593L52.8764 273.171L52.5839 272.746L52.2955 272.317L52.0111 271.885L51.7309 271.449L51.4549 271.011L51.183 270.569L50.9154 270.124L50.6521 269.676L50.393 269.225L50.1383 268.771L49.888 268.315L49.6421 267.855L49.4006 267.392L49.1636 266.927L48.9311 266.458L48.7032 265.987L48.4798 265.514L48.261 265.037L48.0468 264.558L47.8374 264.077L47.6326 263.593L47.4325 263.106L47.2372 262.618L47.0466 262.126L46.8609 261.633L46.68 261.137L46.5039 260.639L46.3328 260.138L46.1665 259.636L46.0052 259.131L45.8489 258.625L45.6975 258.116L45.5512 257.606L45.4099 257.093L45.2737 256.579L45.1426 256.063L45.0165 255.545L44.8956 255.025L44.7799 254.504L44.6693 253.981L44.5639 253.457L44.4637 252.931L44.3688 252.404L44.2791 251.875L44.1947 251.345L44.1156 250.814L44.0417 250.282L43.9732 249.748L43.9101 249.213L43.8523 248.677L43.7998 248.14L43.7528 247.602L43.7111 247.064L43.6748 246.524L43.644 245.983L43.6186 245.442L43.5987 244.9L43.5842 244.358L43.5752 243.815L43.5717 243.271L43.5736 242.727L43.5811 242.182L43.5941 241.637L43.6125 241.092L43.6366 240.547L43.6661 240.001L43.7012 239.455L43.7418 238.909L43.788 238.363L43.8397 237.817L43.897 237.271L43.9598 236.726L44.0283 236.18L44.1022 235.635L44.1818 235.09L44.2669 234.545L44.3576 234.001L44.4538 233.457L44.5557 232.914L44.6631 232.372L44.776 231.83L44.8945 231.288L45.0186 230.748L45.1483 230.208L45.2835 229.67L45.4242 229.132L45.5705 228.595L45.7224 228.059L45.8797 227.524L46.0426 226.991L46.211 226.459L46.385 225.928L46.5644 225.398L46.7493 224.869L46.9397 224.343L47.1356 223.817L47.3369 223.293L47.5437 222.771L47.7559 222.251L47.9735 221.732L48.1966 221.215L48.4251 220.7L48.6589 220.186L48.8981 219.675L49.1426 219.166L49.3925 218.658L49.6477 218.153L49.9082 217.65L50.174 217.149L50.4451 216.651L50.7213 216.155L51.0029 215.661L51.2896 215.17L51.5815 214.681L51.8786 214.195L52.1808 213.711L52.4881 213.23L52.8005 212.752L53.118 212.276L53.4405 211.804L53.7681 211.334L54.1007 210.867L54.4382 210.403L54.7806 209.942L55.128 209.484L55.4803 209.03L55.8374 208.578L56.1994 208.13L56.5661 207.685L56.9377 207.244L57.3139 206.806L57.6949 206.371L58.0806 205.94L58.4709 205.512L58.8658 205.088L59.2653 204.668L59.6694 204.251L60.078 203.838L60.491 203.429L60.9085 203.024L61.3304 202.623L61.7566 202.225L62.1872 201.832L62.6221 201.442L63.0613 201.057L63.5047 200.676L63.9522 200.298L64.4039 199.926L64.8598 199.557L65.3196 199.193L65.7835 198.833L66.2514 198.477L66.7232 198.126L67.1989 197.779L67.6785 197.437L68.1619 197.1L68.649 196.767L69.1399 196.438L69.6344 196.115L70.1326 195.796L70.6344 195.482L71.1397 195.173L71.6485 194.868L72.1608 194.569L72.6764 194.274L73.1955 193.984L73.7178 193.699L74.2434 193.42L74.7722 193.145L75.3041 192.876L75.8392 192.611L76.3773 192.352L76.9185 192.098L77.4626 191.85L78.0096 191.606L78.5595 191.368L79.1122 191.136L79.6676 190.908L80.2257 190.686L80.7865 190.47L81.3499 190.259L81.9158 190.053L82.4842 189.853L83.0551 189.659L83.6283 189.47L84.2038 189.287L84.7816 189.11L85.3616 188.938L85.9438 188.772L86.5281 188.611L87.1144 188.457L87.7027 188.308L88.2929 188.165L88.885 188.027L89.479 187.896L90.0746 187.77L90.672 187.651L91.271 187.537L91.8716 187.429L92.4737 187.327L93.0772 187.232L93.6822 187.142L94.2885 187.058L94.8961 186.98L95.5049 186.908L96.1149 186.842L96.7259 186.783L97.3381 186.729L97.9511 186.682L98.5651 186.641L99.18 186.605L99.7956 186.576L100.412 186.554L101.029 186.537L101.647 186.526L102.265 186.522L102.884 186.524L103.503 186.532L104.122 186.546L104.742 186.567L105.362 186.594L105.982 186.627L106.602 186.666L107.223 186.712L107.843 186.764L108.463 186.822L109.083 186.886L109.703 186.957L110.323 187.034L110.942 187.117L111.561 187.206L112.179 187.302L112.797 187.404L113.414 187.512L114.031 187.627L114.646 187.748L115.261 187.875L115.876 188.008L116.489 188.148L117.101 188.294L117.712 188.446L118.323 188.604L118.931 188.769L119.539 188.94L120.146 189.117L120.751 189.3L121.354 189.49L121.956 189.685L122.557 189.887L123.156 190.095L123.753 190.31L124.349 190.53L124.943 190.756L125.534 190.989L126.124 191.228L126.712 191.472L127.298 191.723L127.882 191.98L128.463 192.243L129.043 192.512L129.62 192.787L130.194 193.068L130.766 193.355L131.336 193.648L131.903 193.946L132.467 194.251L133.029 194.562L133.588 194.878L134.145 195.2L134.698 195.528L135.248 195.862L135.796 196.202L136.34 196.547L136.881 196.898L137.419 197.255L137.954 197.617L138.486 197.985L139.014 198.358L139.539 198.737L140.06 199.122L140.578 199.512L141.092 199.907L141.603 200.308L142.11 200.715L142.613 201.126L143.112 201.543L143.608 201.966L144.099 202.393L144.587 202.826L145.07 203.264L145.55 203.707L146.025 204.156L146.496 204.609L146.963 205.067L147.425 205.531L147.883 205.999L148.337 206.472L148.786 206.95L149.231 207.433L149.671 207.921L150.107 208.413L150.538 208.91L150.964 209.412L151.385 209.918L151.802 210.429L152.214 210.945L152.62 211.465L153.022 211.989L153.419 212.518L153.811 213.051L154.197 213.588L154.579 214.13L154.955 214.676L155.326 215.226L155.691 215.78L156.052 216.338L156.407 216.9L156.756 217.466L157.1 218.035L157.439 218.609L157.772 219.186L158.099 219.768L158.421 220.352L158.737 220.941L159.047 221.533L159.351 222.128L159.65 222.727L159.943 223.33L160.23 223.935L160.511 224.544L160.786 225.156L161.055 225.771L161.319 226.39L161.576 227.011L161.827 227.636L162.071 228.263L162.31 228.893L162.543 229.526L162.769 230.162L162.989 230.8L163.202 231.441L163.41 232.085L163.611 232.731L163.805 233.38L163.994 234.031L164.175 234.684L164.351 235.339L164.52 235.997L164.682 236.657L164.838 237.318L164.987 237.982L165.13 238.648L165.265 239.315L165.395 239.985L165.518 240.656L165.634 241.328L165.743 242.003L165.845 242.679L165.941 243.356L166.03 244.035L166.113 244.715L166.188 245.396L166.257 246.078L166.319 246.762L166.374 247.447L166.422 248.132L166.463 248.819L166.497 249.506L166.525 250.194L166.545 250.883L166.559 251.573L166.566 252.263L166.565 252.953L166.558 253.645L166.544 254.336L166.523 255.028L166.494 255.719L166.459 256.412L166.417 257.104L166.368 257.796L166.312 258.488L166.249 259.18L166.179 259.872L166.101 260.563L166.017 261.254L165.926 261.945L165.828 262.635L165.723 263.325L165.61 264.014L165.491 264.702L165.365 265.39L165.231 266.077L165.091 266.763L164.944 267.448L164.79 268.131L164.628 268.814L164.46 269.496L164.285 270.176L164.103 270.855L163.914 271.532L163.718 272.208L163.515 272.883L163.305 273.555L163.088 274.227L162.864 274.896L162.634 275.564L162.396 276.229L162.152 276.893L161.901 277.555L161.643 278.214L161.378 278.871L161.107 279.527L160.828 280.179L160.543 280.83L160.251 281.478L159.953 282.123L159.648 282.766L159.336 283.406L159.018 284.043L158.692 284.678L158.361 285.31L158.023 285.938L157.678 286.564L157.327 287.187L156.969 287.806L156.605 288.423L156.234 289.036L155.857 289.645L155.474 290.252L155.084 290.855L154.688 291.454L154.285 292.049L153.877 292.641L153.462 293.23L153.041 293.814L152.614 294.395L152.181 294.971L151.742 295.544L151.296 296.113L150.845 296.677L150.388 297.237L149.925 297.793L149.456 298.345L148.981 298.892L148.5 299.435L148.014 299.974L147.521 300.507L147.024 301.037L146.52 301.561L146.011 302.081L145.497 302.596L144.977 303.106L144.451 303.612L143.92 304.112L143.384 304.607L142.842 305.097L142.296 305.582L141.744 306.062L141.186 306.537L140.624 307.006L140.057 307.47L139.484 307.929L138.907 308.382L138.325 308.829L137.738 309.271L137.146 309.708L136.549 310.138L135.948 310.563L135.342 310.982L134.732 311.396L134.117 311.803L133.497 312.205L132.873 312.6L132.245 312.99L131.613 313.373L130.976 313.751L130.335 314.122L129.69 314.487L129.041 314.845L128.388 315.198L127.731 315.544L127.07 315.884L126.405 316.217L125.737 316.544L125.064 316.864L124.389 317.178L123.709 317.485L123.027 317.785L122.341 318.079L121.651 318.366L120.958 318.647L120.262 318.92L119.563 319.187L118.861 319.447L118.155 319.7L117.447 319.946L116.736 320.185L116.022 320.418L115.305 320.643L114.586 320.861L113.864 321.072L113.139 321.276L112.412 321.473L111.683 321.662L110.951 321.844L110.217 322.02L109.481 322.188L108.742 322.348L108.002 322.501L107.26 322.647L106.515 322.786L105.769 322.917L105.022 323.041L104.272 323.157L103.521 323.266L102.768 323.368L102.014 323.462L101.259 323.548L100.502 323.627L99.7443 323.699L98.9853 323.763L98.2251 323.819L97.464 323.868L96.7019 323.909L95.9389 323.942L95.1753 323.968L94.4109 323.986L93.6459 323.997L92.8803 324L92.1143 323.995L91.3479 323.983L90.5813 323.963L89.8143 323.935L89.0473 323.899L88.2801 323.856L87.513 323.805L86.7459 323.747L85.979 323.68L85.2123 323.606L84.446 323.524L83.68 323.435L82.9145 323.338L82.1496 323.233L81.3853 323.12L80.6217 322.999L79.8589 322.871L79.0969 322.735L78.3359 322.592L77.5759 322.441L76.817 322.282L76.0593 322.115L75.3029 321.941L74.5477 321.758L73.794 321.569L73.0418 321.371L72.2912 321.166L71.5422 320.954L70.7949 320.733L70.0494 320.506L69.3058 320.27L68.5642 320.027L67.8246 319.776L67.0871 319.518L66.3518 319.252L65.6188 318.979L64.8881 318.698L64.1599 318.41L63.4341 318.115L62.7109 317.812L61.9904 317.501L61.2726 317.183L60.5576 316.858L59.8455 316.525L59.1363 316.185L58.4302 315.838L57.7272 315.484L57.0274 315.122L56.3308 314.753L55.6375 314.377L54.9477 313.994L54.2613 313.603L53.5785 313.206L52.8994 312.801L52.2239 312.39L51.5522 311.971L50.8843 311.546L50.2204 311.113L49.5604 310.674L48.9045 310.228L48.2528 309.775L47.6052 309.315L46.962 308.848L46.323 308.375L45.6885 307.895L45.0585 307.409L44.433 306.916L43.8122 306.416L43.196 305.91L42.5846 305.398L41.9781 304.879L41.3764 304.354L40.7797 303.822L40.188 303.284L39.6014 302.74L39.02 302.19L38.4438 301.633L37.8728 301.071L37.3073 300.503L36.7471 299.928L36.1924 299.348L35.6433 298.762L35.0998 298.17L34.5619 297.572L34.0298 296.968L33.5035 296.359L32.983 295.744L32.4684 295.124L31.9598 294.498L31.4572 293.867L30.9606 293.231L30.4703 292.589L29.9861 291.941L29.5082 291.289L29.0366 290.632L28.5713 289.969L28.1125 289.302L27.6601 288.629L27.2143 287.952L26.7751 287.269L26.3425 286.582L25.9165 285.891L25.4973 285.195L25.0849 284.494L24.6793 283.788L24.2806 283.078L23.8889 282.364L23.5041 281.646L23.1263 280.923L22.7556 280.196L22.392 279.465L22.0356 278.73L21.6864 277.991L21.3445 277.248L21.0098 276.502L20.6825 275.751L20.3626 274.997L20.05 274.24L19.745 273.478L19.4474 272.714L19.1574 271.946L18.8749 271.174L18.6001 270.4L18.3329 269.622L18.0734 268.841L17.8216 268.057L17.5775 267.271L17.3413 266.481L17.1129 265.689L16.8923 264.894L16.6796 264.096L16.4748 263.296L16.278 262.493L16.0891 261.688L15.9083 260.88L15.7355 260.071L15.5707 259.259L15.414 258.445L15.2654 257.629L15.1249 256.812L14.9926 255.992L14.8685 255.171L14.7526 254.348L14.6449 253.523L14.5454 252.697L14.4542 251.869L14.3713 251.041L14.2966 250.211L14.2303 249.379L14.1723 248.547L14.1227 247.714L14.0814 246.879L14.0484 246.044L14.0239 245.208L14.0077 244.372L14 243.534L14.0007 242.697L14.0098 241.859L14.0273 241.02L14.0533 240.182L14.0877 239.343L14.1306 238.504L14.182 237.665L14.2418 236.826L14.31 235.987L14.3868 235.149L14.472 234.311L14.5657 233.473L14.6679 232.636L14.7785 231.8L14.8976 230.964L15.0252 230.129L15.1612 229.294L15.3057 228.461L15.4587 227.629L15.6201 226.798L15.7899 225.968L15.9682 225.139L16.1549 224.312L16.35 223.486L16.5535 222.662L16.7655 221.839L16.9858 221.018L17.2144 220.199L17.4514 219.382L17.6968 218.566L17.9505 217.753L18.2125 216.942L18.4827 216.133L18.7613 215.326L19.0481 214.522L19.3431 213.72L19.6464 212.921L19.9578 212.124L20.2774 211.33L20.6051 210.539L20.941 209.751L21.285 208.966L21.637 208.184L21.9971 207.405L22.3651 206.629L22.7412 205.857L23.1252 205.087L23.5172 204.322L23.917 203.56L24.3247 202.801L24.7403 202.046L25.1636 201.295L25.5947 200.548L26.0335 199.805L26.48 199.066L26.9342 198.331L27.396 197.6L27.8654 196.873L28.3423 196.151L28.8267 195.433L29.3185 194.72L29.8178 194.011L30.3245 193.307L30.8384 192.608L31.3597 191.913L31.8882 191.223L32.4239 190.539L32.9668 189.859L33.5167 189.184L34.0737 188.515L34.6377 187.851L35.2087 187.192L35.7866 186.538L36.3713 185.89L36.9629 185.248L37.5611 184.611L38.1661 183.98L38.7777 183.354L39.3959 182.735L40.0207 182.121L40.6519 181.513L41.2895 180.911L41.9335 180.316L42.5838 179.726L43.2404 179.143L43.9031 178.566L44.5719 177.995L45.2469 177.431L45.9278 176.873L46.6146 176.322L47.3074 175.777L48.0059 175.24L48.7102 174.708L49.4202 174.184L50.1357 173.667L50.8569 173.156L51.5835 172.652L52.3155 172.156L53.0529 171.666L53.7955 171.184L54.5434 170.709L55.2964 170.241L56.0545 169.78L56.8175 169.327L57.5855 168.881L58.3584 168.443L59.136 168.012L59.9183 167.589L60.7052 167.173L61.4967 166.765L62.2927 166.365L63.0931 165.973L63.8978 165.588L64.7068 165.211L65.52 164.843L66.3372 164.482L67.1585 164.129L67.9837 163.784L68.8127 163.448L69.6455 163.119L70.4821 162.799L71.3222 162.487L72.1659 162.183L73.0131 161.887L73.8636 161.6L74.7174 161.321L75.5744 161.051L76.4346 160.789L77.2978 160.535L78.1639 160.29L79.0329 160.054L79.9047 159.826L80.7792 159.607L81.6564 159.396L82.536 159.194L83.4181 159.001L84.3026 158.817L85.1893 158.641L86.0782 158.474L86.9692 158.316L87.8622 158.167L88.7572 158.027L89.6539 157.895L90.5525 157.773L91.4526 157.659L92.3543 157.555L93.2575 157.459L94.1621 157.372L95.068 157.295L95.9751 157.226L96.8833 157.167L97.7925 157.116L98.7027 157.075L99.6137 157.042L100.525 157.019L101.438 157.005L102.351 157L103.264 157.004L104.178 157.017L105.092 157.04L106.007 157.072L106.921 157.112L107.835 157.162L108.75 157.221L109.664 157.29L110.578 157.367L111.491 157.454L112.405 157.55L113.317 157.655L114.229 157.769L115.14 157.893L116.051 158.025L116.96 158.167L117.869 158.318L118.776 158.478L119.682 158.647L120.587 158.826L121.491 159.013L122.393 159.21L123.293 159.416L124.192 159.631L125.089 159.855L125.985 160.088L126.878 160.33L127.769 160.581L128.658 160.841L129.545 161.11L130.43 161.389L131.312 161.676L132.192 161.972L133.069 162.277L133.944 162.591L134.816 162.914L135.685 163.246L136.551 163.587L137.414 163.936L138.274 164.295L139.13 164.662L139.984 165.038L140.834 165.422L141.68 165.815L142.523 166.217L143.362 166.628L144.198 167.047L145.029 167.474L145.857 167.91L146.681 168.355L147.501 168.808L148.316 169.27L149.127 169.739L149.934 170.218L150.737 170.704L151.534 171.199L152.328 171.702L153.116 172.213L153.9 172.732L154.679 173.259L155.453 173.795L156.222 174.338L156.986 174.889L157.744 175.448L158.498 176.015L159.246 176.59L159.988 177.173L160.725 177.763L161.457 178.361L162.182 178.966L162.902 179.579L163.617 180.2L164.325 180.827L165.027 181.463L165.723 182.105L166.413 182.755L167.097 183.412L167.774 184.076L168.446 184.747L169.11 185.426L169.768 186.111L170.42 186.803L171.065 187.502L171.703 188.208L172.334 188.92L172.959 189.639L173.576 190.365L174.187 191.097L174.79 191.835L175.386 192.58L175.975 193.331L176.557 194.089L177.132 194.852L177.698 195.622L178.258 196.398L178.81 197.179L179.354 197.967L179.891 198.76L180.42 199.559L180.941 200.364L181.454 201.174L181.959 201.989L182.457 202.811L182.946 203.637L183.427 204.469L183.9 205.306L184.365 206.148L184.822 206.995L185.27 207.847L185.71 208.703L186.142 209.565L186.565 210.431L186.979 211.302L187.385 212.178L187.783 213.057L188.171 213.942L188.551 214.83L188.922 215.723L189.285 216.62L189.638 217.521L189.983 218.425L190.319 219.334L190.645 220.246L190.963 221.162L191.271 222.082L191.571 223.005L191.861 223.931L192.143 224.861L192.414 225.794L192.677 226.73L192.93 227.669L193.175 228.612L193.409 229.557L193.635 230.504L193.85 231.455L194.057 232.408L194.254 233.363L194.441 234.321L194.619 235.281L194.787 236.243L194.946 237.208L195.095 238.174L195.235 239.142L195.364 240.112L195.484 241.084L195.595 242.058L195.695 243.033L195.786 244.009L195.867 244.987L195.939 245.966L196 246.946" stroke="#534A28" stroke-width="2"/>
</svg>
