<svg width="304" height="220" viewBox="0 0 304 220" fill="none" xmlns="http://www.w3.org/2000/svg">
<path d="M52.3528 128.592C54.4246 149.107 57.0265 174.663 65.7647 173.78C74.503 172.898 73.6431 152.765 71.5712 132.25C69.4994 111.735 44.4305 28.6675 35.6923 29.55C26.9541 30.4325 50.281 108.077 52.3528 128.592Z" fill="#44B01E"/>
<path d="M81.4333 116.371C71.5256 134.454 59.2011 156.992 66.9034 161.212C74.6058 165.432 85.2957 148.351 95.2035 130.268C105.111 112.184 131.479 29.5205 123.777 25.3004C116.075 21.0803 91.341 98.288 81.4333 116.371Z" fill="#44B01E"/>
<path d="M74.7063 100.287C74.5388 120.906 74.3511 146.593 83.1335 146.664C91.9159 146.736 93.2466 126.629 93.414 106.01C93.5815 85.391 77.6782 0.0932588 68.8958 0.0219363C60.1134 -0.0493861 74.8737 79.6683 74.7063 100.287Z" fill="#44B01E"/>
<path d="M91.6455 84.6535L194.191 39L234.355 84.6535L304 213H22L91.6455 84.6535Z" fill="#9A9A9A"/>
<path d="M21.5057 160.969L59.9087 147L101 220H0L21.5057 160.969Z" fill="#C7C3C3"/>
<path d="M224.882 193.053L240.529 183L250.686 193.053L257 212H215L224.882 193.053Z" fill="#C7C3C3"/>
</svg>
