<svg width="416" height="186" viewBox="0 0 416 186" fill="none" xmlns="http://www.w3.org/2000/svg">
<path d="M335.673 53.0439C327.487 71.7672 317.269 95.0839 309.173 91.5439C301.076 88.004 307.987 69.2666 316.173 50.5434C324.359 31.8202 364.576 11.501 372.673 15.0409C380.769 18.5809 343.859 34.3207 335.673 53.0439Z" fill="#44B01E"/>
<path d="M61.7978 131.452C59.7446 151.783 57.1658 177.109 48.3739 176.221C39.5821 175.333 40.4167 155.379 42.47 135.048C44.5232 114.717 3.86999 56.2247 12.6618 57.1126C21.4537 58.0005 63.8511 111.12 61.7978 131.452Z" fill="#44B01E"/>
<path d="M86.5 94L181.5 47L314.5 59L415.5 186H13.5L86.5 94Z" fill="#9A9A9A"/>
</svg>
