<svg width="288" height="168" viewBox="0 0 288 168" fill="none" xmlns="http://www.w3.org/2000/svg">
<path d="M84.136 103.338C82.0827 123.669 79.5039 148.995 70.7121 148.108C61.9202 147.22 62.7549 127.266 64.8081 106.935C66.8614 86.6038 56.3278 43.3946 65.1196 44.2825C73.9115 45.1704 86.1892 83.0071 84.136 103.338Z" fill="#44B01E"/>
<path d="M268.312 101.592C266.24 122.107 263.638 147.663 254.9 146.78C246.161 145.898 247.021 125.765 249.093 105.25C251.165 84.7348 276.234 1.6675 284.972 2.54998C293.71 3.43245 270.383 81.0767 268.312 101.592Z" fill="#44B01E"/>
<path d="M38.6028 113.044C46.7889 131.767 57.0062 155.084 65.1028 151.544C73.1993 148.004 66.2889 129.267 58.1028 110.543C49.9167 91.8202 9.69932 71.501 1.6028 75.0409C-6.49372 78.5809 30.4167 94.3207 38.6028 113.044Z" fill="#44B01E"/>
<path d="M90 84L199 30L237 73L264 154H41L90 84Z" fill="#9A9A9A"/>
<path d="M80 136L108.5 123L127 136L138.5 160.5H62L80 136Z" fill="#C7C3C3"/>
<path d="M268.118 149.053L252.471 139L242.314 149.053L236 168H278L268.118 149.053Z" fill="#C7C3C3"/>
</svg>
