<svg width="1560" height="240" viewBox="0 0 1560 240" fill="none" xmlns="http://www.w3.org/2000/svg">
<g clip-path="url(#clip0_201_290)">
<circle cx="188.704" cy="127.144" r="112.856" transform="rotate(-180 188.704 127.144)" fill="#D1BC00"/>
<circle cx="229.601" cy="164.936" r="25.3666" transform="rotate(-180 229.601 164.936)" fill="#D9D9D9"/>
<circle cx="143.665" cy="164.936" r="25.3666" transform="rotate(-180 143.665 164.936)" fill="#D9D9D9"/>
<circle cx="230.119" cy="176.842" r="9.31835" transform="rotate(-180 230.119 176.842)" fill="black"/>
<circle cx="230.119" cy="176.842" r="9.31835" transform="rotate(-180 230.119 176.842)" fill="black"/>
<circle cx="230.119" cy="176.842" r="9.31835" transform="rotate(-180 230.119 176.842)" fill="black"/>
<circle cx="144.183" cy="176.842" r="9.31835" transform="rotate(-180 144.183 176.842)" fill="black"/>
<circle cx="144.183" cy="176.842" r="9.31835" transform="rotate(-180 144.183 176.842)" fill="black"/>
<circle cx="144.183" cy="176.842" r="9.31835" transform="rotate(-180 144.183 176.842)" fill="black"/>
<path d="M301.559 125.572C301.559 138.428 250.285 125.572 188.964 125.572C127.644 125.572 75.8481 138.428 75.8481 125.572C75.8481 112.717 127.644 102.296 188.964 102.296C250.285 102.296 301.559 112.717 301.559 125.572Z" fill="black"/>
<path d="M301.559 125.572C301.559 138.428 250.285 125.572 188.964 125.572C127.644 125.572 75.8481 138.428 75.8481 125.572C75.8481 112.717 127.644 102.296 188.964 102.296C250.285 102.296 301.559 112.717 301.559 125.572Z" fill="black"/>
<path d="M237.366 33.4092C237.366 43.9691 215.022 33.4092 188.3 33.4092C161.577 33.4092 139.006 43.9691 139.006 33.4092C139.006 22.8494 161.577 14.2889 188.3 14.2889C215.022 14.2889 237.366 22.8494 237.366 33.4092Z" fill="black"/>
<path d="M237.366 33.4092C237.366 43.9691 215.022 33.4092 188.3 33.4092C161.577 33.4092 139.006 43.9691 139.006 33.4092C139.006 22.8494 161.577 14.2889 188.3 14.2889C215.022 14.2889 237.366 22.8494 237.366 33.4092Z" fill="black"/>
<path d="M290.17 78.9807C290.17 91.8362 244.07 78.9807 188.938 78.9807C133.806 78.9807 87.2373 91.8362 87.2373 78.9807C87.2373 66.1253 133.806 55.7039 188.938 55.7039C244.07 55.7039 290.17 66.1253 290.17 78.9807Z" fill="black"/>
<path d="M290.17 78.9807C290.17 91.8362 244.07 78.9807 188.938 78.9807C133.806 78.9807 87.2373 91.8362 87.2373 78.9807C87.2373 66.1253 133.806 55.7039 188.938 55.7039C244.07 55.7039 290.17 66.1253 290.17 78.9807Z" fill="black"/>
<path d="M360.805 9.57629C370.52 27.7248 358.861 80.0269 317.019 102.427C275.177 124.828 218.996 108.844 209.28 90.695C199.564 72.5466 239.144 68.3688 280.986 45.9684C322.829 23.5681 351.089 -8.57218 360.805 9.57629Z" fill="#D9D9D9"/>
<path d="M28.8815 9.57627C19.1657 27.7247 30.8249 80.0269 72.6672 102.427C114.51 124.828 170.69 108.844 180.406 90.695C190.122 72.5466 150.542 68.3687 108.7 45.9684C66.8573 23.5681 38.5973 -8.5722 28.8815 9.57627Z" fill="#D9D9D9"/>
</g>
<circle cx="1366.55" cy="140.382" r="99.361" transform="rotate(-180 1366.55 140.382)" fill="#D1BC00"/>
<circle cx="1402.56" cy="173.654" r="22.3334" transform="rotate(-180 1402.56 173.654)" fill="#D9D9D9"/>
<circle cx="1326.9" cy="173.654" r="22.3334" transform="rotate(-180 1326.9 173.654)" fill="#D9D9D9"/>
<circle cx="1403.02" cy="184.137" r="8.20412" transform="rotate(-180 1403.02 184.137)" fill="black"/>
<circle cx="1403.02" cy="184.137" r="8.20412" transform="rotate(-180 1403.02 184.137)" fill="black"/>
<circle cx="1403.02" cy="184.137" r="8.20412" transform="rotate(-180 1403.02 184.137)" fill="black"/>
<circle cx="1327.35" cy="184.137" r="8.20412" transform="rotate(-180 1327.35 184.137)" fill="black"/>
<circle cx="1327.35" cy="184.137" r="8.20412" transform="rotate(-180 1327.35 184.137)" fill="black"/>
<circle cx="1327.35" cy="184.137" r="8.20412" transform="rotate(-180 1327.35 184.137)" fill="black"/>
<path d="M1465.91 138.997C1465.91 150.316 1420.77 138.997 1366.78 138.997C1312.79 138.997 1267.19 150.316 1267.19 138.997C1267.19 127.679 1312.79 118.504 1366.78 118.504C1420.77 118.504 1465.91 127.679 1465.91 138.997Z" fill="black"/>
<path d="M1465.91 138.997C1465.91 150.316 1420.77 138.997 1366.78 138.997C1312.79 138.997 1267.19 150.316 1267.19 138.997C1267.19 127.679 1312.79 118.504 1366.78 118.504C1420.77 118.504 1465.91 127.679 1465.91 138.997Z" fill="black"/>
<path d="M1409.4 57.8546C1409.4 67.1518 1389.72 57.8546 1366.2 57.8546C1342.67 57.8546 1322.8 67.1518 1322.8 57.8546C1322.8 48.5575 1342.67 41.0206 1366.2 41.0206C1389.72 41.0206 1409.4 48.5575 1409.4 57.8546Z" fill="black"/>
<path d="M1409.4 57.8546C1409.4 67.1518 1389.72 57.8546 1366.2 57.8546C1342.67 57.8546 1322.8 67.1518 1322.8 57.8546C1322.8 48.5575 1342.67 41.0206 1366.2 41.0206C1389.72 41.0206 1409.4 48.5575 1409.4 57.8546Z" fill="black"/>
<path d="M1455.89 97.977C1455.89 109.295 1415.3 97.977 1366.76 97.977C1318.22 97.977 1277.22 109.295 1277.22 97.977C1277.22 86.6587 1318.22 77.4834 1366.76 77.4834C1415.3 77.4834 1455.89 86.6587 1455.89 97.977Z" fill="black"/>
<path d="M1455.89 97.977C1455.89 109.295 1415.3 97.977 1366.76 97.977C1318.22 97.977 1277.22 109.295 1277.22 97.977C1277.22 86.6587 1318.22 77.4834 1366.76 77.4834C1415.3 77.4834 1455.89 86.6587 1455.89 97.977Z" fill="black"/>
<path d="M1234.78 6.81835C1222.07 19.7401 1218.95 66.8152 1248.74 96.1156C1278.53 125.416 1329.95 125.846 1342.66 112.925C1355.37 100.003 1322.97 86.6575 1293.18 57.357C1263.39 28.0566 1247.49 -6.10339 1234.78 6.81835Z" fill="#D9D9D9"/>
<path d="M1494.82 8.64147C1507.53 21.5632 1510.65 68.6383 1480.86 97.9388C1451.06 127.239 1399.64 127.67 1386.93 114.748C1374.22 101.826 1406.62 88.4806 1436.41 59.1802C1466.21 29.8797 1482.11 -4.28027 1494.82 8.64147Z" fill="#D9D9D9"/>
<circle cx="975.582" cy="144.449" r="79.5509" transform="rotate(-180 975.582 144.449)" fill="#D1BC00"/>
<circle cx="1004.41" cy="171.088" r="17.8807" transform="rotate(-180 1004.41 171.088)" fill="#D9D9D9"/>
<circle cx="943.835" cy="171.088" r="17.8807" transform="rotate(-180 943.835 171.088)" fill="#D9D9D9"/>
<circle cx="1004.78" cy="179.481" r="6.56842" transform="rotate(-180 1004.78 179.481)" fill="black"/>
<circle cx="1004.78" cy="179.481" r="6.56842" transform="rotate(-180 1004.78 179.481)" fill="black"/>
<circle cx="1004.78" cy="179.481" r="6.56842" transform="rotate(-180 1004.78 179.481)" fill="black"/>
<circle cx="944.2" cy="179.481" r="6.56842" transform="rotate(-180 944.2 179.481)" fill="black"/>
<circle cx="944.2" cy="179.481" r="6.56842" transform="rotate(-180 944.2 179.481)" fill="black"/>
<circle cx="944.2" cy="179.481" r="6.56842" transform="rotate(-180 944.2 179.481)" fill="black"/>
<path d="M1055.13 143.341C1055.13 152.403 1018.99 143.341 975.766 143.341C932.542 143.341 896.031 152.403 896.031 143.341C896.031 134.279 932.542 126.933 975.766 126.933C1018.99 126.933 1055.13 134.279 1055.13 143.341Z" fill="black"/>
<path d="M1055.13 143.341C1055.13 152.403 1018.99 143.341 975.766 143.341C932.542 143.341 896.031 152.403 896.031 143.341C896.031 134.279 932.542 126.933 975.766 126.933C1018.99 126.933 1055.13 134.279 1055.13 143.341Z" fill="black"/>
<path d="M1009.88 78.3759C1009.88 85.8195 994.134 78.3759 975.298 78.3759C956.461 78.3759 940.551 85.8195 940.551 78.3759C940.551 70.9324 956.461 64.8982 975.298 64.8982C994.134 64.8982 1009.88 70.9324 1009.88 78.3759Z" fill="black"/>
<path d="M1009.88 78.3759C1009.88 85.8195 994.134 78.3759 975.298 78.3759C956.461 78.3759 940.551 85.8195 940.551 78.3759C940.551 70.9324 956.461 64.8982 975.298 64.8982C994.134 64.8982 1009.88 70.9324 1009.88 78.3759Z" fill="black"/>
<path d="M1047.11 110.499C1047.11 119.561 1014.61 110.499 975.748 110.499C936.885 110.499 904.06 119.561 904.06 110.499C904.06 101.437 936.885 94.0912 975.748 94.0912C1014.61 94.0912 1047.11 101.437 1047.11 110.499Z" fill="black"/>
<path d="M1047.11 110.499C1047.11 119.561 1014.61 110.499 975.748 110.499C936.885 110.499 904.06 119.561 904.06 110.499C904.06 101.437 936.885 94.0912 975.748 94.0912C1014.61 94.0912 1047.11 101.437 1047.11 110.499Z" fill="black"/>
<path d="M1051.63 19.4996C1064.54 26.1319 1078.73 61.1359 1063.44 90.8917C1048.15 120.648 1009.17 133.887 996.259 127.255C983.353 120.623 1004.63 102.341 1019.92 72.5856C1035.22 42.8298 1038.73 12.8673 1051.63 19.4996Z" fill="#D9D9D9"/>
<path d="M899.365 19.4996C886.459 26.1319 872.265 61.1359 887.556 90.8917C902.847 120.648 941.833 133.887 954.739 127.255C967.645 120.623 946.365 102.341 931.074 72.5856C915.783 42.8298 912.271 12.8673 899.365 19.4996Z" fill="#D9D9D9"/>
<circle cx="586.552" cy="140.382" r="99.361" transform="rotate(-180 586.552 140.382)" fill="#D1BC00"/>
<circle cx="622.559" cy="173.654" r="22.3334" transform="rotate(-180 622.559 173.654)" fill="#D9D9D9"/>
<circle cx="546.899" cy="173.654" r="22.3334" transform="rotate(-180 546.899 173.654)" fill="#D9D9D9"/>
<circle cx="623.015" cy="184.137" r="8.20412" transform="rotate(-180 623.015 184.137)" fill="black"/>
<circle cx="623.015" cy="184.137" r="8.20412" transform="rotate(-180 623.015 184.137)" fill="black"/>
<circle cx="623.015" cy="184.137" r="8.20412" transform="rotate(-180 623.015 184.137)" fill="black"/>
<circle cx="547.355" cy="184.137" r="8.20412" transform="rotate(-180 547.355 184.137)" fill="black"/>
<circle cx="547.355" cy="184.137" r="8.20412" transform="rotate(-180 547.355 184.137)" fill="black"/>
<circle cx="547.355" cy="184.137" r="8.20412" transform="rotate(-180 547.355 184.137)" fill="black"/>
<path d="M685.914 138.997C685.914 150.316 640.77 138.997 586.782 138.997C532.794 138.997 487.192 150.316 487.192 138.997C487.192 127.679 532.794 118.504 586.782 118.504C640.77 118.504 685.914 127.679 685.914 138.997Z" fill="black"/>
<path d="M685.914 138.997C685.914 150.316 640.77 138.997 586.782 138.997C532.794 138.997 487.192 150.316 487.192 138.997C487.192 127.679 532.794 118.504 586.782 118.504C640.77 118.504 685.914 127.679 685.914 138.997Z" fill="black"/>
<path d="M629.396 57.8546C629.396 67.1518 609.724 57.8546 586.197 57.8546C562.67 57.8546 542.797 67.1518 542.797 57.8546C542.797 48.5575 562.67 41.0206 586.197 41.0206C609.724 41.0206 629.396 48.5575 629.396 57.8546Z" fill="black"/>
<path d="M629.396 57.8546C629.396 67.1518 609.724 57.8546 586.197 57.8546C562.67 57.8546 542.797 67.1518 542.797 57.8546C542.797 48.5575 562.67 41.0206 586.197 41.0206C609.724 41.0206 629.396 48.5575 629.396 57.8546Z" fill="black"/>
<path d="M675.886 97.977C675.886 109.295 635.299 97.977 586.759 97.977C538.219 97.977 497.219 109.295 497.219 97.977C497.219 86.6587 538.219 77.4834 586.759 77.4834C635.299 77.4834 675.886 86.6587 675.886 97.977Z" fill="black"/>
<path d="M675.886 97.977C675.886 109.295 635.299 97.977 586.759 97.977C538.219 97.977 497.219 109.295 497.219 97.977C497.219 86.6587 538.219 77.4834 586.759 77.4834C635.299 77.4834 675.886 86.6587 675.886 97.977Z" fill="black"/>
<path d="M454.778 6.81835C442.069 19.7401 438.947 66.8152 468.739 96.1156C498.531 125.416 549.955 125.846 562.664 112.925C575.372 100.003 542.972 86.6575 513.181 57.357C483.389 28.0566 467.487 -6.10339 454.778 6.81835Z" fill="#D9D9D9"/>
<path d="M714.817 8.64147C727.525 21.5632 730.647 68.6383 700.856 97.9388C671.064 127.239 619.64 127.67 606.931 114.748C594.223 101.826 626.622 88.4806 656.414 59.1802C686.206 29.8797 702.108 -4.28027 714.817 8.64147Z" fill="#D9D9D9"/>
<defs>
<clipPath id="clip0_201_290">
<rect width="390" height="240" fill="white"/>
</clipPath>
</defs>
</svg>
