<svg width="6395" height="3271" viewBox="0 0 6395 3271" fill="none" xmlns="http://www.w3.org/2000/svg">
<rect width="6395" height="3271" fill="#48933C"/>
<path d="M1919.8 994C1917.74 1014.33 1915.17 1039.66 1906.37 1038.77C1897.58 1037.88 1898.42 1017.93 1900.47 997.597C1902.52 977.266 1861.87 918.773 1870.66 919.661C1879.45 920.549 1921.85 973.669 1919.8 994Z" fill="#44B01E"/>
<path d="M1923.61 992.592C1921.54 1013.11 1918.94 1038.66 1910.2 1037.78C1901.46 1036.9 1902.32 1016.77 1904.39 996.25C1906.46 975.735 1931.53 892.667 1940.27 893.55C1949.01 894.432 1925.68 972.077 1923.61 992.592Z" fill="#44B01E"/>
<path d="M4464.8 654C4462.74 674.331 4460.17 699.657 4451.37 698.769C4442.58 697.881 4443.42 677.928 4445.47 657.597C4447.52 637.266 4406.87 578.773 4415.66 579.661C4424.45 580.549 4466.85 633.669 4464.8 654Z" fill="#44B01E"/>
<path d="M4468.61 652.592C4466.54 673.107 4463.94 698.663 4455.2 697.78C4446.46 696.898 4447.32 676.765 4449.39 656.25C4451.46 635.735 4476.53 552.667 4485.27 553.55C4494.01 554.432 4470.68 632.077 4468.61 652.592Z" fill="#44B01E"/>
<path d="M588.798 352C586.745 372.331 584.166 397.657 575.374 396.769C566.582 395.881 567.417 375.928 569.47 355.597C571.523 335.266 530.87 276.773 539.662 277.661C548.454 278.549 590.851 331.669 588.798 352Z" fill="#44B01E"/>
<path d="M592.609 350.592C590.538 371.107 587.936 396.663 579.197 395.78C570.459 394.898 571.319 374.765 573.391 354.25C575.463 333.735 600.532 250.667 609.27 251.55C618.008 252.432 594.681 330.077 592.609 350.592Z" fill="#44B01E"/>
<path d="M4951.8 2238C4949.74 2258.33 4947.17 2283.66 4938.37 2282.77C4929.58 2281.88 4930.42 2261.93 4932.47 2241.6C4934.52 2221.27 4893.87 2162.77 4902.66 2163.66C4911.45 2164.55 4953.85 2217.67 4951.8 2238Z" fill="#44B01E"/>
<path d="M4955.61 2236.59C4953.54 2257.11 4950.94 2282.66 4942.2 2281.78C4933.46 2280.9 4934.32 2260.77 4936.39 2240.25C4938.46 2219.73 4963.53 2136.67 4972.27 2137.55C4981.01 2138.43 4957.68 2216.08 4955.61 2236.59Z" fill="#44B01E"/>
<path d="M1103.8 2446C1101.74 2466.33 1099.17 2491.66 1090.37 2490.77C1081.58 2489.88 1082.42 2469.93 1084.47 2449.6C1086.52 2429.27 1045.87 2370.77 1054.66 2371.66C1063.45 2372.55 1105.85 2425.67 1103.8 2446Z" fill="#44B01E"/>
<path d="M1107.61 2444.59C1105.54 2465.11 1102.94 2490.66 1094.2 2489.78C1085.46 2488.9 1086.32 2468.77 1088.39 2448.25C1090.46 2427.73 1115.53 2344.67 1124.27 2345.55C1133.01 2346.43 1109.68 2424.08 1107.61 2444.59Z" fill="#44B01E"/>
<g filter="url(#filter0_d_198_9)">
<path d="M3303.8 1920C3301.74 1940.33 3299.17 1965.66 3290.37 1964.77C3281.58 1963.88 3282.42 1943.93 3284.47 1923.6C3286.52 1903.27 3245.87 1844.77 3254.66 1845.66C3263.45 1846.55 3305.85 1899.67 3303.8 1920Z" fill="#44B01E"/>
<path d="M3307.61 1918.59C3305.54 1939.11 3302.94 1964.66 3294.2 1963.78C3285.46 1962.9 3286.32 1942.77 3288.39 1922.25C3290.46 1901.73 3315.53 1818.67 3324.27 1819.55C3333.01 1820.43 3309.68 1898.08 3307.61 1918.59Z" fill="#44B01E"/>
</g>
<path d="M3015.8 203C3013.74 223.331 3011.17 248.657 3002.37 247.769C2993.58 246.881 2994.42 226.928 2996.47 206.597C2998.52 186.266 2957.87 127.773 2966.66 128.661C2975.45 129.549 3017.85 182.669 3015.8 203Z" fill="#44B01E"/>
<path d="M3019.61 201.592C3017.54 222.107 3014.94 247.663 3006.2 246.78C2997.46 245.898 2998.32 225.765 3000.39 205.25C3002.46 184.735 3027.53 101.667 3036.27 102.55C3045.01 103.432 3021.68 181.077 3019.61 201.592Z" fill="#44B01E"/>
<path d="M731.698 1432.08C739.573 1450.1 749.411 1472.53 760.47 1467.69C771.53 1462.85 765.317 1444.64 757.441 1426.63C749.566 1408.61 700.249 1393.71 689.19 1398.55C678.13 1403.38 723.822 1414.07 731.698 1432.08Z" fill="#74EF49"/>
<path d="M791.302 1431.08C783.427 1449.1 773.589 1471.53 762.53 1466.69C751.47 1461.85 757.683 1443.64 765.559 1425.63C773.434 1407.61 822.751 1392.71 833.81 1397.55C844.87 1402.38 799.178 1413.07 791.302 1431.08Z" fill="#74EF49"/>
<path d="M3371.7 1095.08C3379.57 1113.1 3389.41 1135.53 3400.47 1130.69C3411.53 1125.85 3405.32 1107.64 3397.44 1089.63C3389.57 1071.61 3340.25 1056.71 3329.19 1061.55C3318.13 1066.38 3363.82 1077.07 3371.7 1095.08Z" fill="#74EF49"/>
<path d="M3431.3 1094.08C3423.43 1112.1 3413.59 1134.53 3402.53 1129.69C3391.47 1124.85 3397.68 1106.64 3405.56 1088.63C3413.43 1070.61 3462.75 1055.71 3473.81 1060.55C3484.87 1065.38 3439.18 1076.07 3431.3 1094.08Z" fill="#74EF49"/>
<path d="M5849.7 1723.08C5857.57 1741.1 5867.41 1763.53 5878.47 1758.69C5889.53 1753.85 5883.32 1735.64 5875.44 1717.63C5867.57 1699.61 5818.25 1684.71 5807.19 1689.55C5796.13 1694.38 5841.82 1705.07 5849.7 1723.08Z" fill="#74EF49"/>
<path d="M5909.3 1722.08C5901.43 1740.1 5891.59 1762.53 5880.53 1757.69C5869.47 1752.85 5875.68 1734.64 5883.56 1716.63C5891.43 1698.61 5940.75 1683.71 5951.81 1688.55C5962.87 1693.38 5917.18 1704.07 5909.3 1722.08Z" fill="#74EF49"/>
<path d="M2465.7 2781.08C2473.57 2799.1 2483.41 2821.53 2494.47 2816.69C2505.53 2811.85 2499.32 2793.64 2491.44 2775.63C2483.57 2757.61 2434.25 2742.71 2423.19 2747.55C2412.13 2752.38 2457.82 2763.07 2465.7 2781.08Z" fill="#74EF49"/>
<path d="M2525.3 2780.08C2517.43 2798.1 2507.59 2820.53 2496.53 2815.69C2485.47 2810.85 2491.68 2792.64 2499.56 2774.63C2507.43 2756.61 2556.75 2741.71 2567.81 2746.55C2578.87 2751.38 2533.18 2762.07 2525.3 2780.08Z" fill="#74EF49"/>
<path d="M6117.8 352C6115.74 372.331 6113.17 397.657 6104.37 396.769C6095.58 395.881 6096.42 375.928 6098.47 355.597C6100.52 335.266 6059.87 276.773 6068.66 277.661C6077.45 278.549 6119.85 331.669 6117.8 352Z" fill="#44B01E"/>
<path d="M6121.61 350.592C6119.54 371.107 6116.94 396.663 6108.2 395.78C6099.46 394.898 6100.32 374.765 6102.39 354.25C6104.46 333.735 6129.53 250.667 6138.27 251.55C6147.01 252.432 6123.68 330.077 6121.61 350.592Z" fill="#44B01E"/>
<path d="M4516.7 3067.08C4524.57 3085.1 4534.41 3107.53 4545.47 3102.69C4556.53 3097.85 4550.32 3079.64 4542.44 3061.63C4534.57 3043.61 4485.25 3028.71 4474.19 3033.55C4463.13 3038.38 4508.82 3049.07 4516.7 3067.08Z" fill="#74EF49"/>
<path d="M4576.3 3066.08C4568.43 3084.1 4558.59 3106.53 4547.53 3101.69C4536.47 3096.85 4542.68 3078.64 4550.56 3060.63C4558.43 3042.61 4607.75 3027.71 4618.81 3032.55C4629.87 3037.38 4584.18 3048.07 4576.3 3066.08Z" fill="#74EF49"/>
<path d="M1722.67 285.044C1714.49 303.767 1704.27 327.084 1696.17 323.544C1688.08 320.004 1694.99 301.267 1703.17 282.543C1711.36 263.82 1751.58 243.501 1759.67 247.041C1767.77 250.581 1730.86 266.321 1722.67 285.044Z" fill="#44B01E"/>
<path d="M1710.14 279.338C1708.08 299.669 1705.5 324.995 1696.71 324.108C1687.92 323.22 1688.75 303.266 1690.81 282.935C1692.86 262.604 1682.33 219.395 1691.12 220.283C1699.91 221.17 1712.19 259.007 1710.14 279.338Z" fill="#44B01E"/>
<path d="M1670.6 285.044C1678.79 303.767 1689.01 327.084 1697.1 323.544C1705.2 320.004 1698.29 301.267 1690.1 282.543C1681.92 263.82 1641.7 243.501 1633.6 247.041C1625.51 250.581 1662.42 266.321 1670.6 285.044Z" fill="#44B01E"/>
<path d="M345.673 2963.04C337.487 2981.77 327.269 3005.08 319.173 3001.54C311.076 2998 317.987 2979.27 326.173 2960.54C334.359 2941.82 374.576 2921.5 382.673 2925.04C390.769 2928.58 353.859 2944.32 345.673 2963.04Z" fill="#44B01E"/>
<path d="M333.136 2957.34C331.083 2977.67 328.504 3003 319.712 3002.11C310.92 3001.22 311.755 2981.27 313.808 2960.93C315.861 2940.6 305.328 2897.39 314.12 2898.28C322.911 2899.17 335.189 2937.01 333.136 2957.34Z" fill="#44B01E"/>
<path d="M293.603 2963.04C301.789 2981.77 312.006 3005.08 320.103 3001.54C328.199 2998 321.289 2979.27 313.103 2960.54C304.917 2941.82 264.699 2921.5 256.603 2925.04C248.506 2928.58 285.417 2944.32 293.603 2963.04Z" fill="#44B01E"/>
<path d="M4776.67 1495.04C4768.49 1513.77 4758.27 1537.08 4750.17 1533.54C4742.08 1530 4748.99 1511.27 4757.17 1492.54C4765.36 1473.82 4805.58 1453.5 4813.67 1457.04C4821.77 1460.58 4784.86 1476.32 4776.67 1495.04Z" fill="#44B01E"/>
<path d="M4764.14 1489.34C4762.08 1509.67 4759.5 1535 4750.71 1534.11C4741.92 1533.22 4742.75 1513.27 4744.81 1492.93C4746.86 1472.6 4736.33 1429.39 4745.12 1430.28C4753.91 1431.17 4766.19 1469.01 4764.14 1489.34Z" fill="#44B01E"/>
<path d="M4724.6 1495.04C4732.79 1513.77 4743.01 1537.08 4751.1 1533.54C4759.2 1530 4752.29 1511.27 4744.1 1492.54C4735.92 1473.82 4695.7 1453.5 4687.6 1457.04C4679.51 1460.58 4716.42 1476.32 4724.6 1495.04Z" fill="#44B01E"/>
<path d="M5938.67 2963.04C5930.49 2981.77 5920.27 3005.08 5912.17 3001.54C5904.08 2998 5910.99 2979.27 5919.17 2960.54C5927.36 2941.82 5967.58 2921.5 5975.67 2925.04C5983.77 2928.58 5946.86 2944.32 5938.67 2963.04Z" fill="#44B01E"/>
<path d="M5926.14 2957.34C5924.08 2977.67 5921.5 3003 5912.71 3002.11C5903.92 3001.22 5904.75 2981.27 5906.81 2960.93C5908.86 2940.6 5898.33 2897.39 5907.12 2898.28C5915.91 2899.17 5928.19 2937.01 5926.14 2957.34Z" fill="#44B01E"/>
<path d="M5886.6 2963.04C5894.79 2981.77 5905.01 3005.08 5913.1 3001.54C5921.2 2998 5914.29 2979.27 5906.1 2960.54C5897.92 2941.82 5857.7 2921.5 5849.6 2925.04C5841.51 2928.58 5878.42 2944.32 5886.6 2963.04Z" fill="#44B01E"/>
<path d="M2239.67 1767.04C2231.49 1785.77 2221.27 1809.08 2213.17 1805.54C2205.08 1802 2211.99 1783.27 2220.17 1764.54C2228.36 1745.82 2268.58 1725.5 2276.67 1729.04C2284.77 1732.58 2247.86 1748.32 2239.67 1767.04Z" fill="#44B01E"/>
<path d="M2227.14 1761.34C2225.08 1781.67 2222.5 1807 2213.71 1806.11C2204.92 1805.22 2205.75 1785.27 2207.81 1764.93C2209.86 1744.6 2199.33 1701.39 2208.12 1702.28C2216.91 1703.17 2229.19 1741.01 2227.14 1761.34Z" fill="#44B01E"/>
<path d="M2187.6 1767.04C2195.79 1785.77 2206.01 1809.08 2214.1 1805.54C2222.2 1802 2215.29 1783.27 2207.1 1764.54C2198.92 1745.82 2158.7 1725.5 2150.6 1729.04C2142.51 1732.58 2179.42 1748.32 2187.6 1767.04Z" fill="#44B01E"/>
<ellipse cx="1132.5" cy="718.5" rx="10.5" ry="18.5" fill="#D9D9D9"/>
<ellipse cx="1132.5" cy="765.5" rx="10.5" ry="18.5" fill="#D9D9D9"/>
<ellipse cx="1153.74" cy="730.233" rx="10.5" ry="18.5" transform="rotate(47.5608 1153.74 730.233)" fill="#D9D9D9"/>
<ellipse rx="10.5" ry="18.5" transform="matrix(-0.674807 0.737994 0.737994 0.674807 1111.74 730.233)" fill="#D9D9D9"/>
<ellipse cx="1153.02" cy="755.378" rx="10.5" ry="18.5" transform="rotate(110.769 1153.02 755.378)" fill="#D9D9D9"/>
<ellipse rx="10.5" ry="18.5" transform="matrix(0.354594 0.93502 0.93502 -0.354594 1112.02 755.378)" fill="#D9D9D9"/>
<circle cx="1132.5" cy="743.5" r="14.5" fill="#ECDF67"/>
<ellipse cx="4046.5" cy="1570.5" rx="10.5" ry="18.5" fill="#D9D9D9"/>
<ellipse cx="4046.5" cy="1617.5" rx="10.5" ry="18.5" fill="#D9D9D9"/>
<ellipse cx="4067.74" cy="1582.23" rx="10.5" ry="18.5" transform="rotate(47.5608 4067.74 1582.23)" fill="#D9D9D9"/>
<ellipse rx="10.5" ry="18.5" transform="matrix(-0.674807 0.737994 0.737994 0.674807 4025.74 1582.23)" fill="#D9D9D9"/>
<ellipse cx="4067.02" cy="1607.38" rx="10.5" ry="18.5" transform="rotate(110.769 4067.02 1607.38)" fill="#D9D9D9"/>
<ellipse rx="10.5" ry="18.5" transform="matrix(0.354594 0.93502 0.93502 -0.354594 4026.02 1607.38)" fill="#D9D9D9"/>
<circle cx="4046.5" cy="1595.5" r="14.5" fill="#ECDF67"/>
<ellipse cx="3657.5" cy="2947.5" rx="10.5" ry="18.5" fill="#D9D9D9"/>
<ellipse cx="3657.5" cy="2994.5" rx="10.5" ry="18.5" fill="#D9D9D9"/>
<ellipse cx="3678.74" cy="2959.23" rx="10.5" ry="18.5" transform="rotate(47.5608 3678.74 2959.23)" fill="#D9D9D9"/>
<ellipse rx="10.5" ry="18.5" transform="matrix(-0.674807 0.737994 0.737994 0.674807 3636.74 2959.23)" fill="#D9D9D9"/>
<ellipse cx="3678.02" cy="2984.38" rx="10.5" ry="18.5" transform="rotate(110.769 3678.02 2984.38)" fill="#D9D9D9"/>
<ellipse rx="10.5" ry="18.5" transform="matrix(0.354594 0.93502 0.93502 -0.354594 3637.02 2984.38)" fill="#D9D9D9"/>
<circle cx="3657.5" cy="2972.5" r="14.5" fill="#ECDF67"/>
<ellipse cx="425.499" cy="2069.5" rx="10.5" ry="18.5" fill="#D9D9D9"/>
<ellipse cx="425.5" cy="2116.5" rx="10.5" ry="18.5" fill="#D9D9D9"/>
<ellipse cx="446.738" cy="2081.23" rx="10.5" ry="18.5" transform="rotate(47.5608 446.738 2081.23)" fill="#D9D9D9"/>
<ellipse rx="10.5" ry="18.5" transform="matrix(-0.674807 0.737994 0.737994 0.674807 404.738 2081.23)" fill="#D9D9D9"/>
<ellipse cx="446.021" cy="2106.38" rx="10.5" ry="18.5" transform="rotate(110.769 446.021 2106.38)" fill="#D9D9D9"/>
<ellipse rx="10.5" ry="18.5" transform="matrix(0.354594 0.93502 0.93502 -0.354594 405.021 2106.38)" fill="#D9D9D9"/>
<circle cx="425.499" cy="2094.5" r="14.5" fill="#ECDF67"/>
<ellipse cx="2505.5" cy="1164.5" rx="10.5" ry="18.5" fill="#D9D9D9"/>
<ellipse cx="2505.5" cy="1211.5" rx="10.5" ry="18.5" fill="#D9D9D9"/>
<ellipse cx="2526.74" cy="1176.23" rx="10.5" ry="18.5" transform="rotate(47.5608 2526.74 1176.23)" fill="#D9D9D9"/>
<ellipse rx="10.5" ry="18.5" transform="matrix(-0.674807 0.737994 0.737994 0.674807 2484.74 1176.23)" fill="#D9D9D9"/>
<ellipse cx="2526.02" cy="1201.38" rx="10.5" ry="18.5" transform="rotate(110.769 2526.02 1201.38)" fill="#D9D9D9"/>
<ellipse rx="10.5" ry="18.5" transform="matrix(0.354594 0.93502 0.93502 -0.354594 2485.02 1201.38)" fill="#D9D9D9"/>
<circle cx="2505.5" cy="1189.5" r="14.5" fill="#ECDF67"/>
<ellipse cx="5398.5" cy="616.5" rx="10.5" ry="18.5" fill="#D9D9D9"/>
<ellipse cx="5398.5" cy="663.5" rx="10.5" ry="18.5" fill="#D9D9D9"/>
<ellipse cx="5419.74" cy="628.233" rx="10.5" ry="18.5" transform="rotate(47.5608 5419.74 628.233)" fill="#D9D9D9"/>
<ellipse rx="10.5" ry="18.5" transform="matrix(-0.674807 0.737994 0.737994 0.674807 5377.74 628.233)" fill="#D9D9D9"/>
<ellipse cx="5419.02" cy="653.378" rx="10.5" ry="18.5" transform="rotate(110.769 5419.02 653.378)" fill="#D9D9D9"/>
<ellipse rx="10.5" ry="18.5" transform="matrix(0.354594 0.93502 0.93502 -0.354594 5378.02 653.378)" fill="#D9D9D9"/>
<circle cx="5398.5" cy="641.5" r="14.5" fill="#ECDF67"/>
<ellipse cx="1886.5" cy="2510.5" rx="10.5" ry="18.5" fill="#D9D9D9"/>
<ellipse cx="1886.5" cy="2557.5" rx="10.5" ry="18.5" fill="#D9D9D9"/>
<ellipse cx="1907.74" cy="2522.23" rx="10.5" ry="18.5" transform="rotate(47.5608 1907.74 2522.23)" fill="#D9D9D9"/>
<ellipse rx="10.5" ry="18.5" transform="matrix(-0.674807 0.737994 0.737994 0.674807 1865.74 2522.23)" fill="#D9D9D9"/>
<ellipse cx="1907.02" cy="2547.38" rx="10.5" ry="18.5" transform="rotate(110.769 1907.02 2547.38)" fill="#D9D9D9"/>
<ellipse rx="10.5" ry="18.5" transform="matrix(0.354594 0.93502 0.93502 -0.354594 1866.02 2547.38)" fill="#D9D9D9"/>
<circle cx="1886.5" cy="2535.5" r="14.5" fill="#ECDF67"/>
<ellipse cx="5763.5" cy="2435.5" rx="10.5" ry="18.5" fill="#D9D9D9"/>
<ellipse cx="5763.5" cy="2482.5" rx="10.5" ry="18.5" fill="#D9D9D9"/>
<ellipse cx="5784.74" cy="2447.23" rx="10.5" ry="18.5" transform="rotate(47.5608 5784.74 2447.23)" fill="#D9D9D9"/>
<ellipse rx="10.5" ry="18.5" transform="matrix(-0.674807 0.737994 0.737994 0.674807 5742.74 2447.23)" fill="#D9D9D9"/>
<ellipse cx="5784.02" cy="2472.38" rx="10.5" ry="18.5" transform="rotate(110.769 5784.02 2472.38)" fill="#D9D9D9"/>
<ellipse rx="10.5" ry="18.5" transform="matrix(0.354594 0.93502 0.93502 -0.354594 5743.02 2472.38)" fill="#D9D9D9"/>
<circle cx="5763.5" cy="2460.5" r="14.5" fill="#ECDF67"/>
<ellipse cx="3584.5" cy="196.5" rx="10.5" ry="18.5" fill="#D9D9D9"/>
<ellipse cx="3584.5" cy="243.5" rx="10.5" ry="18.5" fill="#D9D9D9"/>
<ellipse cx="3605.74" cy="208.233" rx="10.5" ry="18.5" transform="rotate(47.5608 3605.74 208.233)" fill="#D9D9D9"/>
<ellipse rx="10.5" ry="18.5" transform="matrix(-0.674807 0.737994 0.737994 0.674807 3563.74 208.233)" fill="#D9D9D9"/>
<ellipse cx="3605.02" cy="233.378" rx="10.5" ry="18.5" transform="rotate(110.769 3605.02 233.378)" fill="#D9D9D9"/>
<ellipse rx="10.5" ry="18.5" transform="matrix(0.354594 0.93502 0.93502 -0.354594 3564.02 233.378)" fill="#D9D9D9"/>
<circle cx="3584.5" cy="221.5" r="14.5" fill="#ECDF67"/>
<path d="M1338.1 3011.54C1331.8 3020.28 1324.7 3025.92 1322.24 3024.15C1319.77 3022.37 1322.88 3013.85 1329.17 3005.11C1335.47 2996.37 1361.17 2999.05 1363.64 3000.83C1366.1 3002.6 1344.4 3002.8 1338.1 3011.54Z" fill="#59D56D"/>
<path d="M1306.6 3011.54C1312.9 3020.28 1320 3025.92 1322.46 3024.15C1324.93 3022.37 1321.82 3013.85 1315.52 3005.11C1309.23 2996.37 1277.74 2992.67 1275.27 2994.45C1272.81 2996.22 1300.3 3002.81 1306.6 3011.54Z" fill="#59D46D"/>
<path d="M4045.1 2346.54C4038.8 2355.28 4031.7 2360.92 4029.24 2359.15C4026.77 2357.37 4029.88 2348.85 4036.17 2340.11C4042.47 2331.37 4068.17 2334.05 4070.64 2335.83C4073.1 2337.6 4051.4 2337.8 4045.1 2346.54Z" fill="#59D56D"/>
<path d="M4013.6 2346.54C4019.9 2355.28 4027 2360.92 4029.46 2359.15C4031.93 2357.37 4028.82 2348.85 4022.52 2340.11C4016.23 2331.37 3984.74 2327.67 3982.27 2329.45C3979.81 2331.22 4007.3 2337.81 4013.6 2346.54Z" fill="#59D46D"/>
<path d="M229.099 983.542C222.802 992.279 215.7 997.922 213.236 996.146C210.772 994.371 213.878 985.848 220.175 977.111C226.471 968.374 252.172 971.051 254.637 972.827C257.101 974.603 235.395 974.805 229.099 983.542Z" fill="#59D56D"/>
<path d="M197.599 983.542C203.896 992.279 210.998 997.923 213.462 996.147C215.926 994.371 212.82 985.848 206.523 977.111C200.227 968.374 168.738 964.669 166.274 966.445C163.81 968.221 191.303 974.805 197.599 983.542Z" fill="#59D46D"/>
<path d="M5123.1 152.542C5116.8 161.279 5109.7 166.922 5107.24 165.146C5104.77 163.371 5107.88 154.848 5114.17 146.111C5120.47 137.374 5146.17 140.051 5148.64 141.827C5151.1 143.603 5129.4 143.805 5123.1 152.542Z" fill="#59D56D"/>
<path d="M5091.6 152.542C5097.9 161.279 5105 166.923 5107.46 165.147C5109.93 163.371 5106.82 154.848 5100.52 146.111C5094.23 137.374 5062.74 133.669 5060.27 135.445C5057.81 137.221 5085.3 143.805 5091.6 152.542Z" fill="#59D46D"/>
<ellipse cx="5239.5" cy="2808.5" rx="10.5" ry="18.5" fill="#CA90D3"/>
<ellipse cx="5239.5" cy="2855.5" rx="10.5" ry="18.5" fill="#CA90D3"/>
<ellipse cx="5260.74" cy="2820.23" rx="10.5" ry="18.5" transform="rotate(47.5608 5260.74 2820.23)" fill="#CA90D3"/>
<ellipse rx="10.5" ry="18.5" transform="matrix(-0.674807 0.737994 0.737994 0.674807 5218.74 2820.23)" fill="#CA90D3"/>
<ellipse cx="5260.02" cy="2845.38" rx="10.5" ry="18.5" transform="rotate(110.769 5260.02 2845.38)" fill="#CA90D3"/>
<ellipse rx="10.5" ry="18.5" transform="matrix(0.354594 0.93502 0.93502 -0.354594 5219.02 2845.38)" fill="#CA90D3"/>
<circle cx="5239.5" cy="2833.5" r="14.5" fill="#ECDF67"/>
<ellipse cx="1276.5" cy="1984.5" rx="10.5" ry="18.5" fill="#CA90D3"/>
<ellipse cx="1276.5" cy="2031.5" rx="10.5" ry="18.5" fill="#CA90D3"/>
<ellipse cx="1297.74" cy="1996.23" rx="10.5" ry="18.5" transform="rotate(47.5608 1297.74 1996.23)" fill="#CA90D3"/>
<ellipse rx="10.5" ry="18.5" transform="matrix(-0.674807 0.737994 0.737994 0.674807 1255.74 1996.23)" fill="#CA90D3"/>
<ellipse cx="1297.02" cy="2021.38" rx="10.5" ry="18.5" transform="rotate(110.769 1297.02 2021.38)" fill="#CA90D3"/>
<ellipse rx="10.5" ry="18.5" transform="matrix(0.354594 0.93502 0.93502 -0.354594 1256.02 2021.38)" fill="#CA90D3"/>
<circle cx="1276.5" cy="2009.5" r="14.5" fill="#ECDF67"/>
<ellipse cx="2422.5" cy="416.5" rx="10.5" ry="18.5" fill="#CA90D3"/>
<ellipse cx="2422.5" cy="463.5" rx="10.5" ry="18.5" fill="#CA90D3"/>
<ellipse cx="2443.74" cy="428.233" rx="10.5" ry="18.5" transform="rotate(47.5608 2443.74 428.233)" fill="#CA90D3"/>
<ellipse rx="10.5" ry="18.5" transform="matrix(-0.674807 0.737994 0.737994 0.674807 2401.74 428.233)" fill="#CA90D3"/>
<ellipse cx="2443.02" cy="453.378" rx="10.5" ry="18.5" transform="rotate(110.769 2443.02 453.378)" fill="#CA90D3"/>
<ellipse rx="10.5" ry="18.5" transform="matrix(0.354594 0.93502 0.93502 -0.354594 2402.02 453.378)" fill="#CA90D3"/>
<circle cx="2422.5" cy="441.5" r="14.5" fill="#ECDF67"/>
<ellipse cx="297.499" cy="604.5" rx="10.5" ry="18.5" fill="#CA90D3"/>
<ellipse cx="297.5" cy="651.5" rx="10.5" ry="18.5" fill="#CA90D3"/>
<ellipse cx="318.738" cy="616.233" rx="10.5" ry="18.5" transform="rotate(47.5608 318.738 616.233)" fill="#CA90D3"/>
<ellipse rx="10.5" ry="18.5" transform="matrix(-0.674807 0.737994 0.737994 0.674807 276.738 616.233)" fill="#CA90D3"/>
<ellipse cx="318.021" cy="641.378" rx="10.5" ry="18.5" transform="rotate(110.769 318.021 641.378)" fill="#CA90D3"/>
<ellipse rx="10.5" ry="18.5" transform="matrix(0.354594 0.93502 0.93502 -0.354594 277.021 641.378)" fill="#CA90D3"/>
<circle cx="297.499" cy="629.5" r="14.5" fill="#ECDF67"/>
<ellipse cx="3983.5" cy="867.5" rx="10.5" ry="18.5" fill="#80C9E0"/>
<ellipse cx="3983.5" cy="914.5" rx="10.5" ry="18.5" fill="#80C9E0"/>
<ellipse cx="4004.74" cy="879.233" rx="10.5" ry="18.5" transform="rotate(47.5608 4004.74 879.233)" fill="#80C9E0"/>
<ellipse rx="10.5" ry="18.5" transform="matrix(-0.674807 0.737994 0.737994 0.674807 3962.74 879.233)" fill="#80C9E0"/>
<ellipse cx="4004.02" cy="904.378" rx="10.5" ry="18.5" transform="rotate(110.769 4004.02 904.378)" fill="#80C9E0"/>
<ellipse rx="10.5" ry="18.5" transform="matrix(0.354594 0.93502 0.93502 -0.354594 3963.02 904.378)" fill="#80C9E0"/>
<circle cx="3983.5" cy="892.5" r="14.5" fill="#ECDF67"/>
<ellipse cx="791.499" cy="2832.5" rx="10.5" ry="18.5" fill="#80C9E0"/>
<ellipse cx="791.5" cy="2879.5" rx="10.5" ry="18.5" fill="#80C9E0"/>
<ellipse cx="812.738" cy="2844.23" rx="10.5" ry="18.5" transform="rotate(47.5608 812.738 2844.23)" fill="#80C9E0"/>
<ellipse rx="10.5" ry="18.5" transform="matrix(-0.674807 0.737994 0.737994 0.674807 770.738 2844.23)" fill="#80C9E0"/>
<ellipse cx="812.021" cy="2869.38" rx="10.5" ry="18.5" transform="rotate(110.769 812.021 2869.38)" fill="#80C9E0"/>
<ellipse rx="10.5" ry="18.5" transform="matrix(0.354594 0.93502 0.93502 -0.354594 771.021 2869.38)" fill="#80C9E0"/>
<circle cx="791.499" cy="2857.5" r="14.5" fill="#ECDF67"/>
<ellipse cx="1865.5" cy="1428.5" rx="10.5" ry="18.5" fill="#EA7575"/>
<ellipse cx="1865.5" cy="1475.5" rx="10.5" ry="18.5" fill="#EA7575"/>
<ellipse cx="1886.74" cy="1440.23" rx="10.5" ry="18.5" transform="rotate(47.5608 1886.74 1440.23)" fill="#EA7575"/>
<ellipse rx="10.5" ry="18.5" transform="matrix(-0.674807 0.737994 0.737994 0.674807 1844.74 1440.23)" fill="#EA7575"/>
<ellipse cx="1886.02" cy="1465.38" rx="10.5" ry="18.5" transform="rotate(110.769 1886.02 1465.38)" fill="#EA7575"/>
<ellipse rx="10.5" ry="18.5" transform="matrix(0.354594 0.93502 0.93502 -0.354594 1845.02 1465.38)" fill="#EA7575"/>
<circle cx="1865.5" cy="1453.5" r="14.5" fill="#ECDF67"/>
<ellipse cx="3197.5" cy="586.5" rx="10.5" ry="18.5" fill="#EA7575"/>
<ellipse cx="3197.5" cy="633.5" rx="10.5" ry="18.5" fill="#EA7575"/>
<ellipse cx="3218.74" cy="598.233" rx="10.5" ry="18.5" transform="rotate(47.5608 3218.74 598.233)" fill="#EA7575"/>
<ellipse rx="10.5" ry="18.5" transform="matrix(-0.674807 0.737994 0.737994 0.674807 3176.74 598.233)" fill="#EA7575"/>
<ellipse cx="3218.02" cy="623.378" rx="10.5" ry="18.5" transform="rotate(110.769 3218.02 623.378)" fill="#EA7575"/>
<ellipse rx="10.5" ry="18.5" transform="matrix(0.354594 0.93502 0.93502 -0.354594 3177.02 623.378)" fill="#EA7575"/>
<circle cx="3197.5" cy="611.5" r="14.5" fill="#ECDF67"/>
<ellipse cx="2914.5" cy="3094.5" rx="10.5" ry="18.5" fill="#EA7575"/>
<ellipse cx="2914.5" cy="3141.5" rx="10.5" ry="18.5" fill="#EA7575"/>
<ellipse cx="2935.74" cy="3106.23" rx="10.5" ry="18.5" transform="rotate(47.5608 2935.74 3106.23)" fill="#EA7575"/>
<ellipse rx="10.5" ry="18.5" transform="matrix(-0.674807 0.737994 0.737994 0.674807 2893.74 3106.23)" fill="#EA7575"/>
<ellipse cx="2935.02" cy="3131.38" rx="10.5" ry="18.5" transform="rotate(110.769 2935.02 3131.38)" fill="#EA7575"/>
<ellipse rx="10.5" ry="18.5" transform="matrix(0.354594 0.93502 0.93502 -0.354594 2894.02 3131.38)" fill="#EA7575"/>
<circle cx="2914.5" cy="3119.5" r="14.5" fill="#ECDF67"/>
<ellipse cx="5571.5" cy="1311.5" rx="10.5" ry="18.5" fill="#EA7575"/>
<ellipse cx="5571.5" cy="1358.5" rx="10.5" ry="18.5" fill="#EA7575"/>
<ellipse cx="5592.74" cy="1323.23" rx="10.5" ry="18.5" transform="rotate(47.5608 5592.74 1323.23)" fill="#EA7575"/>
<ellipse rx="10.5" ry="18.5" transform="matrix(-0.674807 0.737994 0.737994 0.674807 5550.74 1323.23)" fill="#EA7575"/>
<ellipse cx="5592.02" cy="1348.38" rx="10.5" ry="18.5" transform="rotate(110.769 5592.02 1348.38)" fill="#EA7575"/>
<ellipse rx="10.5" ry="18.5" transform="matrix(0.354594 0.93502 0.93502 -0.354594 5551.02 1348.38)" fill="#EA7575"/>
<circle cx="5571.5" cy="1336.5" r="14.5" fill="#ECDF67"/>
<circle cx="5571.5" cy="1336.5" r="14.5" fill="#ECDF67"/>
<ellipse cx="6219.5" cy="855.5" rx="10.5" ry="18.5" fill="#80C9E0"/>
<ellipse cx="6219.5" cy="902.5" rx="10.5" ry="18.5" fill="#80C9E0"/>
<ellipse cx="6240.74" cy="867.233" rx="10.5" ry="18.5" transform="rotate(47.5608 6240.74 867.233)" fill="#80C9E0"/>
<ellipse rx="10.5" ry="18.5" transform="matrix(-0.674807 0.737994 0.737994 0.674807 6198.74 867.233)" fill="#80C9E0"/>
<ellipse cx="6240.02" cy="892.378" rx="10.5" ry="18.5" transform="rotate(110.769 6240.02 892.378)" fill="#80C9E0"/>
<ellipse rx="10.5" ry="18.5" transform="matrix(0.354594 0.93502 0.93502 -0.354594 6199.02 892.378)" fill="#80C9E0"/>
<circle cx="6219.5" cy="880.5" r="14.5" fill="#ECDF67"/>
<ellipse cx="4560.5" cy="2267.5" rx="10.5" ry="18.5" fill="#CA90D3"/>
<ellipse cx="4560.5" cy="2314.5" rx="10.5" ry="18.5" fill="#CA90D3"/>
<ellipse cx="4581.74" cy="2279.23" rx="10.5" ry="18.5" transform="rotate(47.5608 4581.74 2279.23)" fill="#CA90D3"/>
<ellipse rx="10.5" ry="18.5" transform="matrix(-0.674807 0.737994 0.737994 0.674807 4539.74 2279.23)" fill="#CA90D3"/>
<ellipse cx="4581.02" cy="2304.38" rx="10.5" ry="18.5" transform="rotate(110.769 4581.02 2304.38)" fill="#CA90D3"/>
<ellipse rx="10.5" ry="18.5" transform="matrix(0.354594 0.93502 0.93502 -0.354594 4540.02 2304.38)" fill="#CA90D3"/>
<circle cx="4560.5" cy="2292.5" r="14.5" fill="#ECDF67"/>
<defs>
<filter id="filter0_d_198_9" x="3253.41" y="1810.54" width="86.8059" height="154.249" filterUnits="userSpaceOnUse" color-interpolation-filters="sRGB">
<feFlood flood-opacity="0" result="BackgroundImageFix"/>
<feColorMatrix in="SourceAlpha" type="matrix" values="0 0 0 0 0 0 0 0 0 0 0 0 0 0 0 0 0 0 127 0" result="hardAlpha"/>
<feOffset dx="10" dy="-5"/>
<feGaussianBlur stdDeviation="2"/>
<feComposite in2="hardAlpha" operator="out"/>
<feColorMatrix type="matrix" values="0 0 0 0 0 0 0 0 0 0 0 0 0 0 0 0 0 0 0.25 0"/>
<feBlend mode="normal" in2="BackgroundImageFix" result="effect1_dropShadow_198_9"/>
<feBlend mode="normal" in="SourceGraphic" in2="effect1_dropShadow_198_9" result="shape"/>
</filter>
</defs>
</svg>
