<svg width="1921" height="965" viewBox="0 0 1921 965" fill="none" xmlns="http://www.w3.org/2000/svg">
<rect width="1920" height="965" fill="url(#paint0_radial_413_17)"/>
<path d="M1739.7 21.2939L1730.18 113.444L1701.22 225.506L1657.98 326.159L1605.04 421.935" stroke="black" stroke-width="4"/>
<path d="M1558.02 43.5637L1639.73 111.141L1708.76 200.988L1754.78 300.049L1783.34 406.022" stroke="black" stroke-width="4"/>
<path d="M1524.69 353.804L1615.93 268.564L1709.07 201.681L1810.82 158.359L1919.55 131.732" stroke="black" stroke-width="4"/>
<path d="M1476.3 257.046L1590.55 216.346L1707.48 200.279L1817.96 212.179L1919.01 247.063M1476.3 257.046L1590.55 216.346" stroke="black" stroke-width="4"/>
<path d="M1496.13 141.09L1612.76 161.823L1709.55 199.452L1811.1 269.653L1882.51 346.892" stroke="black" stroke-width="4"/>
<path d="M1675.44 157.984L1685.5 162.591L1698.91 163.359L1712.32 157.984L1719.87 152.608" stroke="black" stroke-width="4"/>
<path d="M1720.88 148.464L1724.52 159.512L1733.56 170.706L1747.39 177.861L1757 180.339" stroke="black" stroke-width="4"/>
<path d="M1638.59 171.747L1649.2 174.137L1662.13 172.081L1673.65 164.035L1679.59 157.216" stroke="black" stroke-width="4"/>
<path d="M1637.77 209.522L1645.24 203.605L1650.02 193.777L1648.88 181.733L1645.97 174.11" stroke="black" stroke-width="4"/>
<path d="M1654.38 241.093L1657.52 232.26L1656.24 221.469L1648.73 211.804L1642.11 206.799" stroke="black" stroke-width="4"/>
<path d="M1688.58 250.957L1683.4 243.08L1673.88 237.328L1661.39 237.004L1653.22 238.9" stroke="black" stroke-width="4"/>
<path d="M1730.74 248.978L1722.61 243.271L1711.04 240.99L1698.61 244.798L1691.3 249.271" stroke="black" stroke-width="4"/>
<path d="M1752.86 227.826L1743.91 227.78L1734.89 232.287L1729.22 242.015L1727.31 249.486" stroke="black" stroke-width="4"/>
<path d="M1759.9 205.765L1753.11 208.422L1749 214.439L1750.52 223.283L1753.53 229.339" stroke="black" stroke-width="4"/>
<path d="M1755.5 181.069L1751.72 187.582L1752.17 195.45L1758.88 202.386L1765.07 205.931" stroke="black" stroke-width="4"/>
<path d="M1631.01 103.461L1658.27 114.212L1689.67 120.356L1713.62 117.284L1730.97 107.301" stroke="black" stroke-width="4"/>
<path d="M1730.18 108.837L1746.84 136.482L1771.44 154.144L1792.86 157.959L1813.13 157.959" stroke="black" stroke-width="4"/>
<path d="M1735.73 57.3862L1773.02 100.39L1796.83 118.052L1820.63 131.107L1853.5 149.057" stroke="black" stroke-width="4"/>
<path d="M1591.34 70.4687L1648.97 76.837L1678.79 73.8004L1705.35 67.4205L1738.75 56.8709" stroke="black" stroke-width="4"/>
<path d="M1584.2 157.216L1609.59 146.465L1623.87 134.946L1629.42 120.356L1630.75 102.351" stroke="black" stroke-width="4"/>
<path d="M1750.02 291.602L1723.83 280.105L1704.79 280.105L1688.13 285.459L1670.68 296.21" stroke="black" stroke-width="4"/>
<path d="M1574.68 222.489L1587.04 204.953L1592.05 187.626L1588.07 172.56L1572.43 154.144" stroke="black" stroke-width="4"/>
<path d="M1610.12 274.708L1610.12 255.321L1602.78 238.789L1589.91 229.478L1565.79 224.653" stroke="black" stroke-width="4"/>
<path d="M1789.68 254.742L1774.61 256.278L1764.3 260.117L1756.11 269.141L1750.02 290.834" stroke="black" stroke-width="4"/>
<path d="M1813.49 210.97L1803.97 214.81L1795.68 223.229L1790.29 234.048L1790.43 256.528" stroke="black" stroke-width="4"/>
<path d="M1799.13 162.249L1794.59 171.208L1794.08 182.827L1797.39 194.401L1811.11 210.97" stroke="black" stroke-width="4"/>
<path d="M1668.3 301.585L1660.36 287.763L1646.88 277.78L1630.21 276.057L1607.1 276.057" stroke="black" stroke-width="4"/>
<path d="M1668.3 301.585L1660.36 287.763L1646.88 277.78L1630.21 276.057L1607.1 276.057" stroke="black" stroke-width="4"/>
<path d="M1524.69 144.929L1554.05 127.267L1573.09 110.373L1583.4 95.0143L1592.13 68.905" stroke="black" stroke-width="4"/>
<path d="M1526.91 239.673L1534.93 207.131L1535.95 186.685L1532.12 168.748L1522.31 144.161" stroke="black" stroke-width="4"/>
<path d="M1565.16 314.64L1565.16 280.851L1556.56 263.008L1543.46 249.789L1521.52 240.151" stroke="black" stroke-width="4"/>
<path d="M1635.33 363.454L1620.69 333.07L1606.41 321.551L1587.37 314.64L1565.16 314.64" stroke="black" stroke-width="4"/>
<path d="M1636.56 364.555L1652.43 356.107L1668.3 347.66L1685.75 342.285L1703.21 339.213L1720.66 340.749L1738.11 344.589L1753.98 347.66L1769.85 354.572" stroke="black" stroke-width="4"/>
<path d="M1769.85 352.268L1775.4 338.445L1781.31 326.829L1792.38 318.433L1804.06 312.264L1816.95 310.55L1830.15 310.55L1842.63 311.124L1851.57 312.264" stroke="black" stroke-width="4"/>
<path d="M1863.47 227.097L1851.57 234.008L1842.84 241.687L1840.07 251.601L1838.98 258.581L1838.98 267.797L1840.07 277.78L1841.85 291.602L1844.65 302.353L1847.6 310.8" stroke="black" stroke-width="4"/>
<path d="M1856.33 146.465L1847.6 157.216L1844.43 169.503L1844.43 179.486L1846.01 185.629L1849.25 193.004L1854.02 201.918L1860.88 214.16L1867.53 223.186L1875.37 232.472" stroke="black" stroke-width="4"/>
<path d="M90.9775 134.788L112.467 75.0124L176.987 64.7235L220.164 114.379L198.674 174.155L134.154 184.443L90.9775 134.788Z" fill="#E2D348" stroke="#E7BB4C" stroke-width="7"/>
<path d="M204.567 176.404L226.057 116.629L290.577 106.34L333.754 155.995L312.264 215.771L247.744 226.06L204.567 176.404Z" fill="#E2D348" stroke="#E7BB4C" stroke-width="7"/>
<path d="M114.711 249.869L136.201 190.094L200.721 179.805L243.898 229.46L222.408 289.236L157.888 299.525L114.711 249.869Z" fill="#E2D348" stroke="#E7BB4C" stroke-width="7"/>
<defs>
<radialGradient id="paint0_radial_413_17" cx="0" cy="0" r="1" gradientUnits="userSpaceOnUse" gradientTransform="translate(960 482.5) rotate(90) scale(482.5 960)">
<stop stop-color="#6DEF58"/>
<stop offset="1" stop-color="#48933C"/>
</radialGradient>
</defs>
</svg>
